<svg xmlns="http://www.w3.org/2000/svg" width="469.0136" height="576.2923" viewBox="0 0 469.0136 576.2923"><path d="M504.7956,296.0905c1.138,1.9706,2.1605,3.8025,3.24,5.6a65.0848,65.0848,0,0,1,9.0817,28.5328c.3855,4.6309.9376,9.2478,1.4067,13.8719a143.0319,143.0319,0,0,1-.0734,26.8651,169.8194,169.8194,0,0,1-5.0111,30.0842c-1.2515,4.5907-2.5689,9.1635-3.795,13.7609-1.6023,6.0083-2.7774,12.0784-2.48,18.3518.076,1.603-.0021,1.6067-.9084,2.9625-1.2068-.8474-.9352-2.1632-1.0238-3.3046-.3-3.8613-.4949-7.7307-.7865-11.5928a108.572,108.572,0,0,0-10.6978-39.498c-.2789-.5754-.6511-1.1057-1.0427-1.7623a6.01,6.01,0,0,0-2.8085,2.3818,21.022,21.022,0,0,0-3.9447,9.7369c-.9689,5.7617-.2145,11.4861.2644,17.2157.4608,5.5138,1.14,11.0129,1.4606,16.5337a59.8861,59.8861,0,0,1-1.33,15.8427,30.2424,30.2424,0,0,1-2.4432,6.4848,8.3626,8.3626,0,0,0-.9249,3.802,170.5534,170.5534,0,0,1-4.6932,42.4526,114.9536,114.9536,0,0,0-3.58,28.5943c.0707,4.1918.6327,8.3765,1.0026,12.5616.1439,1.627.6123,3.2481-.0346,5.1207-.6529-.2789-1.4408-.36-1.7257-.7817a23.7623,23.7623,0,0,1-3.1942-5.374c-3.1107-9.2447-5.6418-18.6343-6.2237-28.45-.3733-6.2965-.7278-12.6-1.356-18.8743-.8408-8.3989-3.3176-16.2442-8.6728-22.9784a30.7912,30.7912,0,0,1-4.6649-8.3833c-.2623-.6951-.6469-1.3441-.9433-1.9493-2.98,1.319-5.7726,2.5965-8.6025,3.7857a2.0788,2.0788,0,0,0-1.3383,2.0524,45.46,45.46,0,0,1-.5571,6.2744c-1.4232,6.7053-2.9308,13.3958-4.57,20.0515-2.0117,8.1675-3.861,16.3513-5.1709,24.6755a68.8171,68.8171,0,0,0,2.4615,31.8037c1.1612,3.6945,2.3582,7.3785,3.4662,11.089.2646.8861,1.1112,2.0839.0664,2.7368-1.2891.8057-1.9244-.6638-2.6041-1.4155a67.7357,67.7357,0,0,1-5.38-6.3161c-8.7976-12.5318-19.8229-22.8979-31.4-32.7619-4.4639-3.8037-8.8012-7.7624-13.0849-11.7694a52.5642,52.5642,0,0,1-9.8689-12.45,14.1981,14.1981,0,0,0-.9556-1.2668,16.7517,16.7517,0,0,0-4.4809,6.1347,43.649,43.649,0,0,0-3.1478,11.4884,165.09,165.09,0,0,0-1.58,39.389c.17,2.2786-.2064,3.3318-.9619,3.0611-1.4213-.5089-.931-1.8484-.985-2.8671a128.5989,128.5989,0,0,0-3.2368-23.9773A63.1189,63.1189,0,0,0,345.2549,499.26c-3.6277-4.5988-7.5835-8.9456-11.5078-13.3011-2.4434-2.712-5.1484-5.1864-7.6559-7.8429-6.01-6.3673-10.3557-13.5349-10.4628-22.9529a15.3563,15.3563,0,0,0-1.8482,1.007,51.4976,51.4976,0,0,0-8.6356,8.2305,59.9624,59.9624,0,0,1-10.7591,10.3223c-6.6705,4.872-14.0542,7.385-22.3835,6.8263a48.4462,48.4462,0,0,1-10.9747-2.4862c-3.6931-1.1357-7.4447-2.0843-11.1852-3.0594a9.3914,9.3914,0,0,0-2.1169-.0219c-.2031,1.4207-.4059,2.7054-.5681,3.9952a153.7357,153.7357,0,0,1-5.3321,23.61q-2.7283,9.4041-5.3007,18.8535a100.4185,100.4185,0,0,0-3.19,30.5984c.3345,8.4026.9246,16.7949,1.3765,25.1931.071,1.3191.025,2.6458-.01,3.9678-.0038.1436-.2974.3936-.457.3938-.2922.0006-.7748-.0736-.8438-.2485a7.4387,7.4387,0,0,1-.6079-2.202c-.72-11.7574-5.4575-22.0274-11.78-31.6836a92.83,92.83,0,0,0-20.11-21.9529c-3.9887-3.1652-8.0681-6.2168-12.1333-9.2842-2.2082-1.6663-4.6009-3.1113-6.6749-4.9253-1.968-1.7214-3.6288-3.7939-5.5109-5.8041a7.5,7.5,0,0,0-.8712.7985A228.0365,228.0365,0,0,0,159.03,529.6342c-6.0076,9.5293-10.6811,19.6285-12.9106,30.7449-.3478,1.7344-.6506,3.4861-.8271,5.2446a22.0855,22.0855,0,0,0,1.7692,11.968,6.7763,6.7763,0,0,1,.474,1.5622.6148.6148,0,0,1-.2867.5267c-.28.0941-.7152.179-.8924.0329a3.9039,3.9039,0,0,1-1.0381-1.2486c-4.3314-8.9681-8.672-17.92-11.8975-27.3841-3.7821-11.0966-4.12-22.33-2.0641-33.7457a177.9042,177.9042,0,0,1,6.6583-24.3091,162.3534,162.3534,0,0,0,5.8389-20.7558,98.4353,98.4353,0,0,0,1.4413-24.1344q-.1836-3.15-.4384-6.2949c-.06-.7282-.2422-1.4462-.4729-2.766-.562.97-.8668,1.3832-1.0588,1.8437a76.2044,76.2044,0,0,1-12.7937,20.092c-4.4582,5.2173-9.2126,10.1815-13.673,15.3971-3.8817,4.5388-7.5344,9.2737-11.2916,13.919-.4834.5976-.9688,1.1962-1.4971,1.7526a.6323.6323,0,0,1-.6128.0307c-.2367-.1694-.5625-.4812-.5382-.6982a7.3711,7.3711,0,0,1,.4737-1.9117c.7846-1.9506,1.5323-3.9238,2.4556-5.8094a71.2315,71.2315,0,0,0,7.0086-27.82c.5262-9.7429.723-19.4859-1.1677-29.1236-.7015-3.5762-1.697-7.0958-2.6063-10.6289a16.4865,16.4865,0,0,0-.9474-2.228,54.8157,54.8157,0,0,0-18.7121,2.3965A84.257,84.257,0,0,0,68.9286,426.371c-.8371.5373-1.6871,1.0565-2.5539,1.5433-.1418.08-.4029-.0533-.6087-.0883.5677-1.6292.6154-1.7065,5.3917-4.6954,2.1571-1.35,4.3409-2.67,6.5916-3.8542a77.4461,77.4461,0,0,1,7.2048-3.39,55.34,55.34,0,0,1,7.2469-2.3682,48.36,48.36,0,0,1,7.5043-1.2751c2.5157-.2137,5.0636-.0469,7.6659-.0469a7.0051,7.0051,0,0,0-.8191-3.6494c-2.4157-6.4218-4.9146-12.8127-7.2925-19.2483a219.7356,219.7356,0,0,1-9.7349-32.3964c-.5714-2.8175-1.1432-5.6489-1.4494-8.5024-.3059-2.8507-.2792-5.7372-.4217-9.1724a22.5977,22.5977,0,0,0-.928,2.3637c-1.6354,6.5456-3.2925,13.0865-4.8432,19.6524-1.1937,5.0544-2.21,10.15-3.3664,15.2139a46.4641,46.4641,0,0,1-7.6573,17.5219c-.541.7344-.8715,1.866-2.4572,1.7191a7.493,7.493,0,0,1,.6051-1.7584,52.6974,52.6974,0,0,0,8.5572-24.1824,120.97,120.97,0,0,0,.4523-14.5879c-.1143-8.2062-1.4713-16.3038-2.53-24.4232a154.0619,154.0619,0,0,1-1.6911-25.8119c.4042-10.6381,3.181-20.526,9.1932-29.3876,2.7342-4.03,5.5742-7.99,8.4275-11.9372a69.0458,69.0458,0,0,0,12.6329-30.0246c.9551-6.1074,1.1611-12.3342,1.6541-18.5112,1.2624-15.8176,6.7421-29.933,17.1277-41.9981a50.3043,50.3043,0,0,1,7.0379-6.5312,22.5592,22.5592,0,0,1,11.7857-4.9541,9.8937,9.8937,0,0,0,1.6183-.3514,4.2939,4.2939,0,0,0,.81-.52c.2734-2.6526.6095-5.4969.8509-8.3493q.6159-7.2774,1.1328-14.5631c1.0622-14.9247,6.2389-28.44,14.034-41.0586a59.92,59.92,0,0,1,10.6574-13.0953,32.6745,32.6745,0,0,1,15.0211-8.1086,3.256,3.256,0,0,0,2.7959-2.73c1.1159-4.2813,2.1075-8.6153,3.569-12.7809a90.3046,90.3046,0,0,1,5.6221-13.4524C207.576,28.6179,222.53,17.7027,242.97,14.9041a156.207,156.207,0,0,1,17.5367-1.1934c12.7222-.2957,22.937,4.9011,30.8772,14.7387a40.3174,40.3174,0,0,1,8.6081,17.3844,11.5372,11.5372,0,0,0,.616,1.5375c.5159-1.0855.8746-1.7361,1.1437-2.422,5.4771-13.96,15.6217-23.0808,29.4376-28.38a66.9083,66.9083,0,0,1,20.4105-4.1765,47.6719,47.6719,0,0,1,22.3281,4.0739,7.9872,7.9872,0,0,0,6.3324.318,23.463,23.463,0,0,1,13.7618-.26A56.6564,56.6564,0,0,1,421.4361,32.6,22.7206,22.7206,0,0,1,427.735,44.811a3.4723,3.4723,0,0,0,1.9238,2.8575c16.8286,8.7313,28.5765,22.4394,37.6193,38.7279,2.2539,4.06,4.2593,8.2626,6.261,12.456a60.2673,60.2673,0,0,1,4.6028,13.8257c1.5444,7.4757,3.1975,14.93,4.6651,22.42a60.2839,60.2839,0,0,1,.6141,6.9254c.128,1.6526.09,3.3316.3807,4.9533a6.2137,6.2137,0,0,0,1.3091,2.9411c6.6965,7.5,11.7984,16.03,16.3249,24.94,6.4918,12.78,11.7221,26.0178,14.7315,40.0847a117.1476,117.1476,0,0,1,1.898,35.9885c-.745,7.7294-1.7855,15.4176-4.19,22.81-1.9489,5.99-4.3087,11.8493-6.5862,17.7278A42.3887,42.3887,0,0,1,504.7956,296.0905ZM185.347,377.848c.6265,1.7641-.1582,2.9784-.4792,4.2033a70.1828,70.1828,0,0,0-2.0136,27.3019,49.9694,49.9694,0,0,0,7.8667,20.6063,65.7679,65.7679,0,0,1,7.9043,16.4,36.4628,36.4628,0,0,1-.55,23.792c-1.071,2.9038-2.2646,5.7717-3.5671,8.5795a123.0939,123.0939,0,0,1-14.8036,23.5773c-1.8789,2.4195-1.9607,3.1795.0872,5.4266a37.47,37.47,0,0,0,4.9577,4.3825c5.6241,4.31,11.3613,8.4727,16.9582,12.8168a95.4247,95.4247,0,0,1,22.8394,25.6744,16.0239,16.0239,0,0,0,1.0093,1.3229,123.543,123.543,0,0,0-6.7019-14.1043c-2.7253-5.0695-5.59-10.0644-8.3033-15.14a47.3,47.3,0,0,1-4.5653-12.7741,76.0678,76.0678,0,0,1-.9651-21.4921c.516-6.6192,1.2465-13.2215,1.81-19.8374.2819-3.3064.3757-6.6285.6252-9.9383a6.31,6.31,0,0,1,.8168-1.7483,4.7607,4.7607,0,0,1,.7151,3.5118q-.4757,8.4507-1.0562,16.8955c-.429,6.2924-1.068,12.5757-1.3036,18.8746a56.7535,56.7535,0,0,0,1.3732,14.5077c1.2717,5.6975,3.8417,10.8228,6.5952,15.89q5.4691,10.0656,10.91,20.1465c.1958.3611.4642.6828,1.1373,1.6581-.2276-3.0052-.47-5.2641-.5578-7.529a230.1272,230.1272,0,0,1,1.5914-32.8076q1.4136-13.5354,2.4348-27.1107a76.809,76.809,0,0,0-5.3287-34.8272c-3.4326-8.5129-7.3362-16.8362-11.0451-25.2373-1.6537-3.7458-3.3641-7.4666-4.9911-11.2237a4.3344,4.3344,0,0,1-.0265-1.5913,6.2464,6.2464,0,0,1,1.8977,2.4143c1.3592,2.7851,2.7236,5.5687,4.0174,8.3845,3.5115,7.6422,7.1519,15.2308,10.4415,22.9681a85.7282,85.7282,0,0,1,6.8624,41.1973c-.9912,11.7994-2.3262,23.5694-3.3863,35.3635-.9533,10.6072-1.2077,21.23.4064,31.8035.4422,2.8976.6174,5.9,2.2628,9.2979,0-2.5625.0414-4.39-.0068-6.215a111.1449,111.1449,0,0,1,3.9042-33.5111c1.5108-5.3222,3.0737-10.6295,4.61-15.9444,2.521-8.72,4.9528-17.4347,5.727-26.5589a71.5608,71.5608,0,0,0-9.46-43.0684c-2.8913-4.97-6.2365-9.6736-9.324-14.5309-3.0273-4.7624-6.0953-9.5041-8.95-14.3693a45.5406,45.5406,0,0,1-5.3688-14.5809c-1.0314-5.3825-1.88-10.7659,1.5-15.5519-.3259-.7592-.5161-1.28-.7651-1.7714-7.5982-14.9873-12.8814-30.8094-17.0067-47.0526a101.719,101.719,0,0,1-3.5916-21.9031c-.0924-2.9869-.3022-5.97-.4706-8.9545a11.4228,11.4228,0,0,0-.8948-4.5311l-4.7732,2.5647c.7556,4.3077,1.2407,8.6241-1.9393,12.34a9.4794,9.4794,0,0,1,.97,1.0764c1.1416,1.7888.6612,2.8824-1.3942,3.2179-.5108.0833-1.0275.1306-1.4705.1857a14.9391,14.9391,0,0,1-.587,2.4334,1.6773,1.6773,0,0,1-3.107.354,11.8936,11.8936,0,0,1-.9057-2.115,6.368,6.368,0,0,1-1.6655.2022c-1.8616-.2848-3.0162-2.6712-1.6372-3.6477,1.9887-1.4083,1.4878-2.7857,1.0529-4.5963a50.5508,50.5508,0,0,1-.78-6.243c-.0946-.8547-.1471-1.7141-.19-2.221-2.6014-1.4765-5.0875-2.5276-7.1464-4.1283a23.2153,23.2153,0,0,1-8.6752-14.8577c-.6541-3.8085-.7637-7.7073-1.31-11.5381a39.8153,39.8153,0,0,0-7.0906-18.3864,36.1934,36.1934,0,0,1-4.3714-7.4061c-1.9453-4.6933-3.4712-9.56-5.182-14.3512-.1964-.55-.454-1.0782-.8394-1.9836-.4678.9932-.766,1.5772-1.0226,2.1789a80.8477,80.8477,0,0,0-5.1094,17.8366c-1.1968,6.8165-1.5321,13.6886.1689,20.448,1.5913,6.324,3.442,12.5911,5.4163,18.8078,1.54,4.8481,3.5147,9.556,5.1683,14.37,2.1262,6.19,3.9609,12.4706,3.9383,19.0985a102.591,102.591,0,0,1-4.5254,31.4164,34.01,34.01,0,0,1-5.0951,10.0249,15.3775,15.3775,0,0,1-6.2979,5.2535,4.0656,4.0656,0,0,1-1.29.0887c6.4523-4.2419,9.4779-10.5565,11.74-17.3837.4515-1.3629.8167-2.76,1.1369-4.16a124.5455,124.5455,0,0,0,2.615-20.7258,46.1857,46.1857,0,0,0-1.8841-16.4128c-1.8646-6.0221-3.8471-12.0091-5.8668-17.9814-1.6305-4.8212-3.4706-9.5719-5.08-14.4a59.7334,59.7334,0,0,1-1.2453-33.39c1.9624-8.2383,5.2282-15.9626,8.6407-23.66a45.78,45.78,0,0,1,8.0492-12.5031,30.0577,30.0577,0,0,0,2.9585-3.9731c2.5252-3.9005,4.8416-7.9433,7.4952-11.7524a366.1764,366.1764,0,0,0,23.1036-36.8186,163.7853,163.7853,0,0,0,13.7178-34.4664c1.7314-6.4087,3.2933-12.8685,5.2174-19.2186,2.5362-8.37,6.4815-16.075,12.7792-22.2464,13.5488-13.2768,30.019-17.7831,48.5154-15.12,10.0325,1.4446,19.0184,5.7337,27.2465,11.611.7868.5621,1.5794,1.1162,2.6673,1.8845a9.9977,9.9977,0,0,0-1.6553-4.6023,85.65,85.65,0,0,0-10.46-14.9367C269.18,37.1542,254.0159,32.6658,236.2943,36.1945c-11.8965,2.3687-21.8569,8.4013-30.0744,17.1939-4.5291,4.8461-8.64,10.0852-12.9028,15.1773a16.3381,16.3381,0,0,0-3.4805,7.0872c-2.079,9.5127-4.195,19.0173-6.2507,28.5349A92.73,92.73,0,0,1,179.77,118.61a30.4522,30.4522,0,0,1-5.9553,9.8974,5.56,5.56,0,0,1-1.2383.7808c-.9043-.9884-.3129-1.6.1464-2.21a42.8563,42.8563,0,0,0,7.1034-15.973c1.0746-4.4057,1.951-8.86,2.8723-13.3021a7.4136,7.4136,0,0,0-.1762-1.8588c-1.38.4146-2.5588.6663-3.656,1.1161a26.6848,26.6848,0,0,0-10.629,8.2788,51.55,51.55,0,0,0-9.1393,18.2971c-2.0325,6.9759-2.4568,14.15-2.655,21.355-.1856,6.7482-.2225,13.506-.63,20.2411-.4662,7.7049-3.0135,14.9369-5.7347,22.0881-.1744.4583-.7616.76-1.1567,1.134a2.797,2.797,0,0,1-.0935-2.0846c.7024-2.0987,1.4452-4.184,2.1786-6.2723a56.2141,56.2141,0,0,0,3.34-17.536c.1-4.7585.2657-9.5162.45-14.2723.1932-4.9747.3129-9.9573.6985-14.9182a55.1091,55.1091,0,0,1,7.9033-24.0782,39.2035,39.2035,0,0,1,6.9649-8.8433,21.5857,21.5857,0,0,1,10.677-5.7451c.7483-.1436,1.4926-.3087,2.1584-.4472,1.6077-3.939,4.004-14.9594,3.7021-17.245-1.4777.5566-2.9411,1.0327-4.3432,1.6485a42.0569,42.0569,0,0,0-17.6679,14.6862c-9.8653,14.0513-15.988,29.5-17.094,46.7977-.473,7.3972-1.1566,14.7856-1.9435,22.1568a119.8906,119.8906,0,0,1-8.6559,33.6456c-1.83,4.3775-4.1559,8.5505-6.3262,12.7807-.4165.8118-.7336,1.9368-2.2427,1.8583-.049-.3814-.2545-.8416-.1226-1.1638.418-1.0214.9505-1.9972,1.459-2.98a130.5938,130.5938,0,0,0,13.3182-39.8146c.1667-1.0548.647-2.1466-.28-3.4229-.9639.1868-2.0394.3331-3.0813.6075-5.7581,1.5164-10.39,4.855-14.3988,9.1168a64.7824,64.7824,0,0,0-13.6658,22.9488c-4.5438,12.6949-4.8952,25.8059-3.6624,39.0257.9777,10.4834,3.1552,20.7738,5.4368,31.0425,2.7355,12.3111,5.7287,24.5725,7.1494,37.1429a98.4435,98.4435,0,0,1-.3109,27.7955,63.058,63.058,0,0,1-5.5142,17.341c-.2931.5955-.4439,1.569-1.8463,1.1791,1.1031-3.0081,2.3284-5.93,3.2386-8.9465a85.0038,85.0038,0,0,0,2.3532-9.665,83.5039,83.5039,0,0,0,1.0485-9.5592c.1928-3.199.233-6.4185.1213-9.6215s-.3966-6.407-.7849-9.5888c-.4019-3.2923-.8983-6.5837-1.5774-9.8285-.6447-3.08-.9338-6.2724-2.2156-9.314a5.6738,5.6738,0,0,0-2.9889,2.3257,67.4416,67.4416,0,0,0-5.3313,7.59,218.5513,218.5513,0,0,0-14.0909,29.668A55.2829,55.2829,0,0,0,90.3787,352.84a204.9949,204.9949,0,0,0,8.59,30.3144c3.1487,8.7458,6.5171,17.4124,9.7826,26.1162a97.0123,97.0123,0,0,1,6.37,37.072c-.1448,5.1929-.6725,10.3752-1.0317,15.5619-.0382.552-.1363,1.1-.1657,1.6521-.0291.5462-.0064,1.0951-.0064,2.1132a8.74,8.74,0,0,0,.68-1.0447c3.8575-10.64,5.0789-21.5432,2.732-32.6595-1.7817-8.44-3.8829-16.8143-5.9649-25.1873-1.4416-5.7976-3.0974-11.5419-4.6448-17.3133a3.0477,3.0477,0,0,1,.2923-3.1395c.5238,1.2731.9512,2.1222,1.23,3.0176q6.3151,20.3013,10.6633,41.1143a58.8972,58.8972,0,0,1-1.6582,31.4543c-1.7114,5.0176-3.8679,9.8832-5.8136,14.8213-.246.6245-.4351,1.2713-.6505,1.9078a8.7467,8.7467,0,0,0,2.5339-2.326,98.7819,98.7819,0,0,0,19.5774-46.6261c.8936-6.34.9792-12.7923,1.4536-19.192.3681-4.9651.7466-9.93,1.1852-14.8889.0446-.5038.5351-.9681.8187-1.4507a4.2843,4.2843,0,0,1,.6787,2.6217c-.4293,7.071-.8183,14.1458-1.3737,21.2073q-.5464,6.9466-1.5116,13.859c-1.73,12.4532-6.2555,23.9316-12.4,34.8236-.3522.6245-.6992,1.2518-1.0487,1.8778a1.6213,1.6213,0,0,0,1.2631-.5711c2.6979-3.0824,5.4036-6.1583,8.0677-9.27,11.027-12.879,16.3844-27.902,16.9258-44.7554.2062-6.4178.3957-12.839.78-19.2474.3247-5.41.7289-10.8291,1.4414-16.1986,1.0656-8.03,4.2436-15.31,8.561-22.1254,3.7906-5.9841,7.5169-12.0089,11.2962-18,.1976-.3134.6257-.4814,1.4-1.05a8.7663,8.7663,0,0,1-.2939,2.2891c-.833,1.685-1.715,3.3542-2.7017,4.9532-2.7908,4.522-5.5928,9.0386-8.4813,13.4984-5.9442,9.1775-8.6367,19.3348-9.1557,30.14-.2761,5.75-.4385,11.5065-.5851,17.2618-.2372,9.3134-.908,18.565-3.2226,27.642a13.29,13.29,0,0,0-.1055,4.2709c.17,2.0922.5888,4.163.7947,6.2536a103.873,103.873,0,0,1-1.2764,30.74,170,170,0,0,1-6.0515,20.6972c-2.6462,7.8713-5.1873,15.7741-6.5486,23.9936a63.4029,63.4029,0,0,0-.5388,18.8449c1.1676,8.7691,4.2048,16.938,7.7173,24.9693a9.3434,9.3434,0,0,0,1.0074,1.2952c-.2047-1.0613-.28-1.4865-.3693-1.9091a58.8626,58.8626,0,0,1-1.4359-16.4845,149.0675,149.0675,0,0,1,3.48-21.9457c2.3022-10.1748,5.73-19.9968,9.2209-29.7961a155.3274,155.3274,0,0,0,8.8008-46.4677,130.7525,130.7525,0,0,0-2.7107-31.6876c-.2126-1.0242-.7935-2.05.0777-3.3946a6.6028,6.6028,0,0,1,.9034,1.48c.521,2.0359,1.0277,4.08,1.42,6.1435,2.784,14.6342,2.2109,29.3049.4072,43.9834a150.9612,150.9612,0,0,1-8.1727,32.7856c-4.4689,12.4044-8.4114,24.961-10.485,38.0293a89.5153,89.5153,0,0,0-1.4619,16.5147,34.197,34.197,0,0,0,1.3809,10.1c.1728-1.0731.2484-1.4756.3013-1.881,1.1488-8.8042,2.719-17.5359,6.24-25.7312,2.662-6.1953,5.6612-12.2551,8.7235-18.2666,3.9686-7.7908,8.2287-15.4309,11.4124-23.6041a97.4546,97.4546,0,0,0,4.68-56.7439c-1.1476-5.4058-2.8384-10.694-4.1785-16.0615-2.5807-10.337-3.2785-20.7562-.9838-31.2454.519-2.3724,1.2487-4.7032,1.987-7.02.1537-.482.7742-.8153,1.2755-1.3122.7887,1.416.1061,2.4166-.188,3.4292a61.4305,61.4305,0,0,0-1.648,28.9027c.9868,5.21,2.2825,10.3734,3.6767,15.4931a103.5829,103.5829,0,0,1,1.6424,48.6522,113.54,113.54,0,0,1-10.8277,29.87c-3.1256,5.9858-6.2695,11.9622-9.3737,17.959a94.8177,94.8177,0,0,0-9.8356,29.4711c-.1718,1.1313-.3754,2.2577-.5642,3.3865a3.6659,3.6659,0,0,0,1.0145-1.7925,98.2082,98.2082,0,0,1,11.0021-24.8122,203.2825,203.2825,0,0,1,16.4546-22.5055c3.2858-4.0288,6.557-8.08,9.6207-12.2772,6.1683-8.4506,11.272-17.4835,14.3725-27.5513a34.2268,34.2268,0,0,0,1.6751-12.4356,39.11,39.11,0,0,0-4.8843-16.7591c-1.683-2.9872-3.4592-5.9344-5.3825-8.7714-6.9843-10.3027-8.9433-21.7755-7.9358-33.908a64.1779,64.1779,0,0,1,3.0986-15.2592C183.7579,379.7555,183.8668,378.5932,185.347,377.848ZM157.8287,197.1268a7.8188,7.8188,0,0,0-5.1677,2.915c-.8842,1.1337-1.8325,2.2222-2.8081,3.2793a36.1139,36.1139,0,0,0-6.9665,11.9847,7.599,7.599,0,0,0-.4621,2.2488,18.7207,18.7207,0,0,0,1.2937,8.7823,56.6649,56.6649,0,0,1,2.0144,5.6246,45.1491,45.1491,0,0,0,6.6574,13.3006,37.2471,37.2471,0,0,1,6.77,17.4621c.5425,3.9427.6118,7.9547,1.2362,11.8811,1.2282,7.724,5.2875,13.4916,12.4908,16.8348a9.221,9.221,0,0,0,2.1522.42c.62-2.8437,1.1957-5.4269,1.7415-8.0164a2.8565,2.8565,0,0,0-1.2537-3.088,25.6466,25.6466,0,0,1-1.7127,2.6876,5.908,5.908,0,0,1-8.0786.8306,2.3718,2.3718,0,0,1-1.0718-2.2815c.1445-.8882.8344-1.2142,1.6405-1.4164.6173-.1549,1.207-.42,1.9286-.6786a7.1241,7.1241,0,0,1,.5216-4.5836c.5843-1.292-.0213-2.0808-1.4328-2.3443-.65-.1213-1.3332-.0775-1.9771-.2187-.8427-.1848-1.7841-.3065-2.0564-1.5821a5.0531,5.0531,0,0,1,5.35-1.3735c4.3667,1.2263,6.6418,4.2811,7.2338,8.786a13.05,13.05,0,0,1,1.3607-1.3269,3.1718,3.1718,0,0,1,3.7084-.1591,3.1084,3.1084,0,0,1,1.2076,3.5182c-.1028.4254-.3886.8092-.4748,1.2355a44.5138,44.5138,0,0,0-.6429,10.73,20.52,20.52,0,0,0,8.7224-2.5424,2.8874,2.8874,0,0,0,1.77-2.8789,22.0137,22.0137,0,0,1,.3747-5.9571c1.0189,1.4607.7709,2.6862.8341,3.828.3787,6.8512.6339,13.7112,1.148,20.5519a90.4407,90.4407,0,0,0,1.5558,11.501A250.5843,250.5843,0,0,0,205.74,352.7754c6.9312,18.869,16.504,36.2405,29.5615,51.6055,9.9825,11.7466,21.3841,21.8077,34.9837,29.2173,13.6063,7.4131,28.0976,11.275,43.6641,10.5107,10.6014-.5205,20.5661-3.2884,29.31-9.4675a79.5551,79.5551,0,0,0,10.6739-8.94c7.2353-7.3217,14.3416-14.7857,21.2024-22.4582,6.1227-6.847,11.7047-14.1757,17.7826-21.0648A229.5976,229.5976,0,0,0,409.95,359.6907a6.2361,6.2361,0,0,0,.4881-1.23,26.7555,26.7555,0,0,1-8.64-8.7574,41.6851,41.6851,0,0,1-4.891-11.9368,67.9284,67.9284,0,0,1-1.3834-26.034,45.0152,45.0152,0,0,1,3.8949-12.6477c1.6475-3.479,3.4334-6.8925,5.2156-10.45a14.05,14.05,0,0,0-1.1726-1.5293,16.528,16.528,0,0,0-9.7332-4.5891c-1.9908-.2787-2.355-.2006-2.98,1.7a121.5782,121.5782,0,0,0-3.7246,12.3813c-3.3108,15.4477-2.4834,30.7934,1.6312,46.007a97.0367,97.0367,0,0,1,2.51,10.3039c1.8148,11.663-9.0675,21.9414-20.603,19.5629-1.6225-.3346-3.3054-.7584-4.3314-2.33a4.7415,4.7415,0,0,1,1.8673.4147,13.62,13.62,0,0,0,9.1095.5012c10.4595-2.956,14.3084-11.1652,12.4055-19.27-.3791-1.6149-.6544-3.2639-1.1647-4.8365a101.2808,101.2808,0,0,1-4.6686-24.0548,99.69,99.69,0,0,1,.6838-20.5374,84.2614,84.2614,0,0,1,4.2553-17.0391c.3035-.8535,1.06-1.7422.1953-3.015-2.192.269-4.4838.4869-6.7535.8445a10.3694,10.3694,0,0,1-8.1555-1.9315c-.8276-.6135-1.6109-1.4649-2.9408-1.3887a50.6475,50.6475,0,0,1-4.0918,14.0769c-1.7145,3.5939-3.496,7.1623-5.4165,10.6491a26.4268,26.4268,0,0,1-3.4738,4.8371c-2.14,2.3857-4.3953,4.681-6.7429,6.8629a47.3876,47.3876,0,0,1-6.1629,5.0222c-3.5142,2.3024-7.1462,4.4485-10.8534,6.4265a46.2029,46.2029,0,0,1-13.603,5.1675,67.1849,67.1849,0,0,1-25.7218-.4394,25.4674,25.4674,0,0,1-11.5109-5.5726,49.6535,49.6535,0,0,1-10.5033-12.336,66.7312,66.7312,0,0,1-7.5126-16.936c-.8217-3.0045-1.8246-5.912-1.517-9.0865.578-5.9636,1.3249-11.91,3.657-17.4814,1.92-4.5869,4.1114-9.06,6.1751-13.587.3065-.6725.5717-1.3639.8474-2.0256-1.6221-1.9009-3.7011-2.6892-5.6981-3.6306-1.0889-.5132-2.4151-.951-3.0811-1.8381a8.6757,8.6757,0,0,0-4.2729-2.8433,30.39,30.39,0,0,1-3.7727-2.0724c-1.9345-1.0694-3.8254-2.2345-5.8241-3.1677-5.3149-2.4816-10.6637-4.8919-16.0239-7.2746-11.1238-4.9446-21.8233-10.8136-33.1926-15.2245a22.9588,22.9588,0,0,1-2.984-1.4521c-7.1273-4.0367-14.2362-8.1059-21.363-12.1433-3.8509-2.1817-7.7093-4.3513-11.5993-6.4618a30.8115,30.8115,0,0,0-3.9549-1.72c-2.2734-.8466-2.7216-.6722-4.0375,1.4587a19.7269,19.7269,0,0,0-1.2142,2.358,39.2329,39.2329,0,0,0-3.3621,12.4432c-.1088,1.195.0427,2.5655-1.2365,3.9193a8.2832,8.2832,0,0,1-.5191-1.8558C152.5743,209.3844,154.4849,203.339,157.8287,197.1268Zm154.8426-94.19a72.3667,72.3667,0,0,1,14.6-28.4867,53.9657,53.9657,0,0,1,20.2429-15.2324c7.3127-3.1382,14.956-4.357,22.7386-2.765,16.21,3.316,29.6415,11.3848,39.7413,24.6186a109.2237,109.2237,0,0,1,10.5136,16.9,45.3657,45.3657,0,0,1,4.9358,14.7238c.5492,4.2786.9161,8.5815,1.3177,12.8779a85.9122,85.9122,0,0,1,.6281,8.6049c-.027,3.53-.3794,7.06-.6657,10.5842-.4392,5.4039-.83,10.8153-1.4407,16.2009-1.3207,11.6527-2.987,23.27-4.0954,34.9418a98.8946,98.8946,0,0,0,1.33,29.427c2.9622,14.3681,10.3732,26.22,20.7823,36.3341a95.2535,95.2535,0,0,0,13.1886,10.5964c.6522.44,1.55.7642,1.561,2.24a24.225,24.225,0,0,1-2.5758-1.1868,83.22,83.22,0,0,1-26.99-26.9355,15.4447,15.4447,0,0,0-1.631,7.3869c.1044,5.1949.26,10.3955.6312,15.577a64.7207,64.7207,0,0,0,12.2588,34.2218A242.8414,242.8414,0,0,0,458.5834,326.74c14.5584,15.5746,26.1193,33.1984,35.5379,52.27,5.32,10.7723,9.4406,21.9488,11.2641,33.8885a9.167,9.167,0,0,0,.5781,1.6437,107.7418,107.7418,0,0,0,.3727-14.34,110.1971,110.1971,0,0,0-2.9405-21.6762c-3.1749-12.6521-9.61-23.51-18.346-33.0413-4.4856-4.894-9.3265-9.46-13.8794-14.295q-11.1552-11.8454-22.1245-23.8654a39.9889,39.9889,0,0,1-7.37-10.9912,43.548,43.548,0,0,1-1.8191-5.6611c-.0971-.35.2947-.8352.6718-1.7948.5219,1.256.8557,1.9274,1.0849,2.6327a37.6224,37.6224,0,0,0,5.8442,11.12,77.8411,77.8411,0,0,0,5.4615,6.68q11.7684,12.41,23.6962,24.6695A183.6917,183.6917,0,0,1,492.4981,351.83a70.0266,70.0266,0,0,1,13.3927,30.4032c.9649,5.66,1.3961,11.4106,2.0808,17.1188.0935.7794.2581,1.55.39,2.3254a74.27,74.27,0,0,0,1.9106-12.56,222.73,222.73,0,0,0,.2877-27.5433,107.6369,107.6369,0,0,0-5.7737-29.2028A146.4614,146.4614,0,0,0,493.88,308.5531c-.5085-.9084-1.3035-1.7553-1.1342-3.0216,1.5848.5691,1.5994.56,2.4336,1.9618,10.8008,18.1431,17,37.6214,17.2937,58.87.1809,13.0965-.4409,26.11-3.04,38.9831-.3925,1.9442-.5892,3.928-.8765,5.8934a4.0951,4.0951,0,0,0,1.0046-1.8169,170.3318,170.3318,0,0,0,6.613-32.4771c.6822-6.9327,1.2172-13.9119,1.2243-20.8708a184.0606,184.0606,0,0,0-1.7827-25.49c-1.039-7.4848-2.6882-14.8236-6.0468-21.65a149.4057,149.4057,0,0,0-12.1387-20.9559A185.3263,185.3263,0,0,1,483.7142,265.64c-2.4521-4.7341-4.833-9.5221-5.5562-14.8531-.7579-5.587-1.1711-11.221-1.7052-16.8373a7.5469,7.5469,0,0,1,.4389-1.7535,10.1316,10.1316,0,0,1,1.0162,2.1258c.3219,2.0762.6225,4.1626.7776,6.2565.6025,8.13,2.0735,16.0206,6.0763,23.26.9638,1.7432,1.7614,3.5862,2.8175,5.2691q7.5,11.9523,15.1165,23.8319a10.886,10.886,0,0,0,1.3427,1.3671c.7437-1.4756,1.3955-2.6054,1.896-3.7986.8557-2.04,1.5367-4.1551,2.431-6.1769a103.7013,103.7013,0,0,0,7.5326-28.4511,119.5185,119.5185,0,0,0-1.9856-42.2154c-3.5889-16.1515-10.1385-31.0963-18.4149-45.3428a101.2506,101.2506,0,0,0-19.0063-24.1973c-2.2843-2.0915-4.4549-4.314-6.5917-6.5582a45.6235,45.6235,0,0,1-8.79-12.4093c-.4374-.9581-1.1543-1.8807-.6436-3.4157,2.2185,1.94,2.7749,4.6617,4.4009,6.6407,1.6852,2.051,3.2319,4.2207,4.9881,6.207,1.8311,2.0709,3.811,4.014,5.7793,5.9588,1.86,1.8381,3.79,3.606,6.0375,5.734a19.9751,19.9751,0,0,0,.1615-2.0462,55.3993,55.3993,0,0,0-.4571-7.6087c-1.18-6.3034-2.5293-12.58-4.0012-18.8222a100.8593,100.8593,0,0,0-3.8835-14.0526,124.3563,124.3563,0,0,0-19.2041-33.2248A81.0906,81.0906,0,0,0,423.8035,47.03,94.55,94.55,0,0,0,400.31,40.1141c-16.1411-2.5121-32.01-1.5385-47.4986,3.8042-10.2969,3.5518-19.5123,8.9432-27.0489,16.9246-6.3722,6.7484-10.8912,14.4339-12.1153,23.8614a66.5108,66.5108,0,0,1-2.478,11.6531C310.3391,98.9538,310.869,100.7811,312.6713,102.9368Zm-135.692,94.762c.3794.2141.75.4457,1.14.6394,6.0424,3.0065,12.049,6.0884,18.14,8.9943,13.4823,6.4327,27.0076,12.7755,40.5141,19.1575,1.8007.8509,3.6438,1.6275,5.3823,2.5916,6.0949,3.38,12.1087,6.9083,18.2478,10.2042,2.2139,1.1885,4.6615,2.5015,7.0632,2.6312A10.2167,10.2167,0,0,1,274,244.5956a15.3154,15.3154,0,0,0,5.5891,2.8147,4.4758,4.4758,0,0,0,4.3164-.7766,35.13,35.13,0,0,1,14.6073-6.0316c3.8157-.6525,7.6541-1.1768,11.46-1.8788a39.06,39.06,0,0,1,17.743.3675c2.8417.7825,5.7686,1.2553,8.6569,1.8684a2.8793,2.8793,0,0,0-1.2891-1.6159q-4.9419-3.0582-9.9108-6.0725a86.856,86.856,0,0,0-19.6214-8.851c-2.43-.7448-4.8371-1.5971-7.1874-2.5638a76.5171,76.5171,0,0,0-13.6236-4.1871c-7.146-1.48-14.2615-3.2964-21.6506-1.6563-.1941.043-.4807-.3305-.9309-.662.5457-.3921.9249-.8756,1.3719-.95a36.8048,36.8048,0,0,1,6.2208-.7944c7.4159.06,14.8344.1986,22.2437.5059a146.5884,146.5884,0,0,1,14.8761,1.1938c10.5613,1.5261,20.6853,4.8018,30.6281,8.567a74.8161,74.8161,0,0,1,10.3775,5.1617c3.7469,2.1345,7.2889,4.6254,10.984,6.8554a40.1934,40.1934,0,0,1,11.3172,10.6036,12.2386,12.2386,0,0,1,1.3983,2.25c1.126,2.489.1863,4.783-2.43,5.4884a12.753,12.753,0,0,1-4.58.3392,60.7864,60.7864,0,0,1-6.4205-1.4176c6.1374,5.48,10.846,11.1245,12.49,18.77a21.9174,21.9174,0,0,1,8.4271,3.1626,11.5533,11.5533,0,0,0,6.6315,1.7437c1.4377-.0563,2.8781-.1173,4.3154-.0865a3.5125,3.5125,0,0,0,3.43-2.0512,51.9316,51.9316,0,0,1,4.57-6.9105c3.7812-4.669,7.8028-9.1164,14.0764-10.4856.0929-.02.1659-.1306.4609-.3755.0459-1.4568.1193-3.1018.1455-4.7476a47.3765,47.3765,0,0,1,3.0623-16.2289c1.0232-2.6878,2.0475-5.3866,3.2883-7.9764a10.4692,10.4692,0,0,0,.8755-6.4346c-2.0376-12.8035-1.4447-25.59.3032-38.3713,1.4539-10.6315,2.8251-21.2744,4.2618-31.9082a7.5534,7.5534,0,0,0-.8193-4.8225,21.1714,21.1714,0,0,0-2.815-4.0734c-4.2228-4.5378-8.4232-9.1093-12.87-13.4223a98.2445,98.2445,0,0,0-20.0944-15.1675,47.1713,47.1713,0,0,0-16.7967-5.94,143.7761,143.7761,0,0,0-31.4732-.85c-6.133.4985-11.8481,2.661-17.5248,4.8762a12.9689,12.9689,0,0,0-2.0511,1.0847,5.0237,5.0237,0,0,0-2.6971,4.6119,19.19,19.19,0,0,1-2.5216,9.5384,89.7965,89.7965,0,0,1-6.6249,10.7036,258.9056,258.9056,0,0,1-21.782,25.4839,116.7163,116.7163,0,0,1-39.9391,26.88,56.4592,56.4592,0,0,1-17.6067,4.5152,4.5524,4.5524,0,0,0-4.1582,2.6238,18.9035,18.9035,0,0,1-13.98,9.6636,22.2645,22.2645,0,0,1-12.0489-1.4952c-4.846-1.8863-9.671-3.8267-14.4979-5.7617C181.8443,198.7643,179.5348,197.7493,176.9793,197.6988ZM432.1545,372.1833c-.2095,1.2139-.3143,2.05-.5011,2.8678a40.9344,40.9344,0,0,0-.1275,18.1112,46.168,46.168,0,0,0,4.4554,11.7644c2.2349,4.2023,4.6808,8.299,6.7611,12.5749a65.1686,65.1686,0,0,1,4.3632,10.734c2.5861,9.2133,1.1679,17.7636-5.1919,25.2173-.4045.4741-.7611.9892-1.5955,2.0815,7.0254-2.6983,12.0012-6.5419,14.7258-12.9278a43.8712,43.8712,0,0,0,3.41-18.1361c-.1254-7.7993-1.7014-15.3774-3.602-22.9028a113.56,113.56,0,0,1-3.3128-17.2588,42.0766,42.0766,0,0,1,.6773-12.2253c.51-2.5372,1.7894-4.92,2.774-7.5035-2.4343-5.0109-8.9117-15.4056-11.0943-17.6395-.768,3.0728.3177,6.1953-.98,9.6664-.867-4.0408-.0585-7.5645-.6555-11.435-.6577.8108-1.0318,1.3144-1.4489,1.7794a50.3956,50.3956,0,0,1-12.3293,10.5069,19.1613,19.1613,0,0,1-14.7032,2.2453,13.5533,13.5533,0,0,0-1.6036-.2129c-.7314.9834-1.4127,1.8509-2.0427,2.7542a193.1946,193.1946,0,0,1-14.0166,18.53c-2.2859,2.5584-4.5447,5.1531-6.6408,7.8666a286.0878,286.0878,0,0,1-23.5051,26.6267c-6.5482,6.5951-12.6493,13.6469-20.0534,19.3637a6.9182,6.9182,0,0,0-1.8809,2.6566,11.0948,11.0948,0,0,0-.5127,7.471,22.2194,22.2194,0,0,0,4.7645,8.6523,40.0662,40.0662,0,0,0,12.9289,10.2529c5.5412,2.76,11.2649,5.1526,16.8971,7.7312,3.7212,1.7036,7.513,3.2825,11.1128,5.216,9.3662,5.03,15.6633,12.8235,19.6554,22.5681.3479.8492,1.0973,1.7414.1724,2.9443a6.641,6.641,0,0,1-1.0655-1.1411c-.8661-1.5439-1.6679-3.1239-2.4877-4.6936a44.8167,44.8167,0,0,0-22.92-21.2107q-5.8128-2.45-11.6509-4.8394c-.5811-.2389-1.2064-.3706-1.7882-.545a11.5078,11.5078,0,0,0-.2784,8.5278c2.35,8.0728,5.8546,15.5674,11.8109,21.6433,3.6371,3.71,7.4938,7.2114,11.3406,10.7088,7.6165,6.9248,15.2928,13.7841,22.9522,20.6618a15.6,15.6,0,0,0,1.3288.9688,8.3879,8.3879,0,0,0-2.0614-3.123c-3.254-3.1591-6.4513-6.3889-9.8655-9.368a114.6151,114.6151,0,0,1-16.2153-16.6012,29.4428,29.4428,0,0,1-5.0859-9.2625,11.8593,11.8593,0,0,1-.0225-2.52,18.758,18.758,0,0,1,1.1392,2.0555,32.15,32.15,0,0,0,5.7868,9.6313,88.3441,88.3441,0,0,0,13.0251,13.2305,98.704,98.704,0,0,1,16.6231,16.652,9.3975,9.3975,0,0,0,1.2215,1.1112c-3.0746-8.861-3.0569-17.7744-1.9765-26.7525,1.1236-9.3366,2.4792-18.6467,3.498-27.9941.9874-9.06,1.0164-18.1322-1.082-27.0828-.7317-3.1207-1.6785-6.1906-2.4788-9.2961a12.1648,12.1648,0,0,1-.1731-2.0616c.42.0346.5747.0023.621.0588a2.9357,2.9357,0,0,1,.56.8038c3.5217,10.0162,5.7426,20.27,4.6648,30.939-1.1786,11.6667-2.693,23.299-4.0044,34.9528a64.29,64.29,0,0,0-.0062,17.8791c1.2493,7.4664,4.7556,13.9862,8.7379,20.287.0893.1412.3525.1723.827.3872-.6189-2.1892-1.1561-4.1943-1.7527-6.1816a63.7272,63.7272,0,0,1-2.0537-25.3186,168.762,168.762,0,0,1,4.092-22.1817c1.732-7.0932,3.6376-14.146,5.2538-21.265a50.3584,50.3584,0,0,0,1.2352-18.1183,65.1273,65.1273,0,0,0-5.2909-18.44c-2.3047-5.0223-5.0008-9.8645-7.5081-14.7944-.42-.8254-1.256-1.5671-.7882-2.6834,1.562.38,1.5682.3746,2.1217,1.2316,6.7455,10.4443,11.5662,21.6457,13.3878,34.0273.0875.5945.19,1.1868.2944,1.8334.4725-.1744.7309-.191.86-.3288A24.4063,24.4063,0,0,0,446.6106,438.4a29.3891,29.3891,0,0,0-2.8248-14.5189c-1.82-3.9073-3.8663-7.7161-5.9548-11.49a81.35,81.35,0,0,1-7.4856-16.972,35.8519,35.8519,0,0,1-.2446-20.6191C430.3659,373.9229,430.3471,372.7786,432.1545,372.1833ZM303.2909,90.7261a14.2279,14.2279,0,0,0-6.07-8.4494c-3.9261-2.69-7.8793-5.3454-11.89-7.9076a36.954,36.954,0,0,0-16.7749-5.8259,46.1661,46.1661,0,0,0-13.5215,1.1035c-19.9459,4.1177-33.302,15.6548-39.3264,35.3a87.0363,87.0363,0,0,0-3.506,19.2294c-.5165,7.0639-.829,14.1426-1.3339,21.2074-.4044,5.6578-1.3141,11.2275-4.0052,16.3268-3.2114,6.0852-8.1714,9.84-15.0545,10.7194a23.2216,23.2216,0,0,1-15.0183-3.0562c-.8452-.4949-1.6741-1.0178-2.4224-1.4741-.361.17-.6484.2077-.7349.36-4.8792,8.58-10.835,16.44-16.394,24.5653a9.1964,9.1964,0,0,0-.6183,1.4744,20.8066,20.8066,0,0,0,2.082-.286,33.4482,33.4482,0,0,1,14.1568-.4252,58.5643,58.5643,0,0,1,11.6684,3.7447c4.511,1.8317,9.0009,3.723,13.5644,5.4146a35.4644,35.4644,0,0,0,7.0366,1.8765,16.2084,16.2084,0,0,0,14.5573-4.7749A22.7778,22.7778,0,0,0,225.9342,186.9c.8237-5.3509,1.45-10.7486,1.8141-16.1494a68.0784,68.0784,0,0,0-1.1836-18.1769c-.77-3.7867-1.867-7.5154-2.9717-11.2242a53.1417,53.1417,0,0,1-1.6044-24.2953c1.1964-7.1212,3.5976-13.6947,8.6548-19.0552A41.2985,41.2985,0,0,1,242.69,89.2891a73.5922,73.5922,0,0,1,34.4093-7.3363,63.1841,63.1841,0,0,1,10.5417,1.0916A30.54,30.54,0,0,1,303.2909,90.7261Zm168.704,442.2568.4589-.0736c-.3248-2.1764-.619-4.3579-.98-6.5283a95.6437,95.6437,0,0,1-1.3642-24.1329q1.1482-13.0594,2.56-26.0953a124.9328,124.9328,0,0,0-1.27-35.7047c-.5669-3.1569-1.0517-6.3294-1.5071-9.5043-.0948-.6618-.41-1.6276,1.16-1.7536.2921,1.096.655,2.232.8912,3.3938.4185,2.059.81,4.126,1.1251,6.203,1.3636,8.9811,2.5848,18.0037,1.966,27.0971-.6533,9.6-1.66,19.1782-2.6662,28.75a110.6222,110.6222,0,0,0-.0086,26.8182c.2946-2.0672.444-4.153.7068-6.2244.5981-4.7148,1.0361-9.4638,1.9256-14.1252,2.2376-11.7269,5.4607-23.2915,5.7582-35.3267.1585-6.4123.3691-12.8364.1472-19.2411a58.3325,58.3325,0,0,0-2.892-15.9577c-2.2809-7.0453-4.4535-14.1259-6.6537-21.1972a4.4522,4.4522,0,0,1,.0849-1.225c.461.5724.8417.8536.96,1.22,3.29,10.1855,7.4234,20.0991,9.8656,30.9947a28.5689,28.5689,0,0,0,.3858-11.9261c-.7867-3.6741-1.5878-7.3506-2.5614-10.9781a82.0657,82.0657,0,0,1-1.5061-33.5824c.0511-.348.3738-.6561.5866-1.0109.273.218.4179.2769.4241.3478a9.5467,9.5467,0,0,1,.0829,1.6033c-.6291,7.5163-.9184,15.047.24,22.522.7779,5.0179,1.8431,10.003,3.0319,14.9422,1.36,5.65,2.1875,11.2893,1.2171,17.0883a24.283,24.283,0,0,0-.1629,2.6093,7.6183,7.6183,0,0,0,1.165-3.0523c1.1735-6.6006.8426-13.2391.3321-19.8629-.408-5.2937-1.1187-10.5641-1.523-15.858a49.3586,49.3586,0,0,1,.4695-12.5774c.853-4.724,2.5916-8.9194,6.7335-11.7579.25-.1713.3777-.5212.6751-.951-.9383-1.8078-1.8909-3.6692-2.8768-5.5127-.1354-.2532-.4368-.4178-.6657-.6273l-1.0271,1.2452c-.1913-1.1606-.2606-2.0191-.4839-2.8356a14.5937,14.5937,0,0,0-1.2365-3.7115c-2.8586-4.7366-5.8493-9.3935-8.8067-14.07a12.1572,12.1572,0,0,0-.9754-1.1909,6.4721,6.4721,0,0,0-.0872,3.32c.8741,3.7686,1.8363,7.5168,2.7237,11.2825a11.7792,11.7792,0,0,1,.1336,1.985c-1.7642-2.1-2.3941-4.5479-3.0681-6.95-.6879-2.4527-1.1463-4.97-1.7052-7.4587a6.039,6.039,0,0,0-1.106,2.8819c-.3688,3.2967-.7795,6.595-.9682,9.9044-.625,10.96-.6574,21.9038,1.3844,32.7555a6.4429,6.4429,0,0,1,.205,1.6386c-.0282.37-.2715.9227-.5491,1.02a1.1837,1.1837,0,0,1-1.09-.3983,27.65,27.65,0,0,1-1.8956-4.5659,72.7994,72.7994,0,0,0-5.0775-13.3139q-3.3018-6.6993-6.6411-13.38c-.484-.9664-1.0683-1.8824-1.7271-3.0323a9.4846,9.4846,0,0,0-2.175,5.0174,44.3347,44.3347,0,0,0-.2406,16.18c.9229,5.1116,2.0709,10.1856,3.2328,15.25,1.5352,6.692,3.1628,13.371,3.0582,20.2942a15.6735,15.6735,0,0,0,1.2612,6.4392,8.2835,8.2835,0,0,1,1.0838,4.7146l-2.2069-4.3706c-.9927,3.7534-1.9835,7.1475-2.7428,10.5926a6.1285,6.1285,0,0,0,.413,3.1785q1.4572,4.059,3.19,8.0181c4.1915,9.592,5.6642,19.7277,6.103,30.074a13.1119,13.1119,0,0,1-.2282,2.0508c-1.7238-2.5039-1.1845-5.327-1.6646-7.9618-.4943-2.7131-.4908-5.5157-.9645-8.234a74.2119,74.2119,0,0,0-1.9957-8.3824,75.7536,75.7536,0,0,0-2.8212-7.8c-1.0423-2.4741-1.5607-5.2021-3.2411-7.495-1.7979,2.3578-3.4367,4.57-5.1485,6.7233a2.4629,2.4629,0,0,0-.1243,2.784,44.4653,44.4653,0,0,0,5.4659,9.8418,40.5406,40.5406,0,0,1,6.8419,14.6363,96.8,96.8,0,0,1,2.5671,21.38,116.4408,116.4408,0,0,0,4.906,30.0437C471.193,530.9364,471.621,531.9516,471.9949,532.9829ZM227.2233,192.1164a3.8152,3.8152,0,0,0,.88.4042,9.3734,9.3734,0,0,0,1.3214-.0127,47.37,47.37,0,0,0,13.2367-2.9884,112.2449,112.2449,0,0,0,32.4113-18.5674c9.1548-7.4353,17.0594-16.1153,24.591-25.1266,3.7561-4.494,7.2-9.2615,10.5922-14.0425a35.9024,35.9024,0,0,0,5.1165-10.7456c1.3585-4.6278-.5323-8.4466-2.7509-12.1985a3.27,3.27,0,0,0-1.8548-1.31,22.2441,22.2441,0,0,0-5.1639-.89,14.922,14.922,0,0,0-7.5027,2.417,40.5974,40.5974,0,0,0-9.931,7.7223c-4.04,4.3975-8.0615,8.8444-11.6994,13.5716-7.9813,10.3711-17.15,19.3585-28.348,26.2517-5.57,3.4284-10.9767,7.0859-17.9646,7.6008C229.5513,173.6946,229.4119,183.0666,227.2233,192.1164ZM298.7121,80.2029a22.9841,22.9841,0,0,0-5.1833-6.3119c-14.9794-12.595-31.9768-18.4751-51.4571-14.1136-18.5082,4.1438-31.5558,14.9489-37.5047,33.4078-1.3557,4.2067-2.5659,8.4746-3.5674,12.7785a187.95,187.95,0,0,1-24.7047,58.0431,8.8723,8.8723,0,0,0-.5926,1.3832,14.9578,14.9578,0,0,0,6.5513,4.0182c7.528,2.61,15.5518.6483,20.3091-4.9936a23.1651,23.1651,0,0,0,4.0884-7.5457,44.9127,44.9127,0,0,0,2.0395-11.4016c.518-7.0616.8705-14.1359,1.4383-21.1932a89.0834,89.0834,0,0,1,3.2294-18.6032c5.6826-18.893,17.6373-31.6055,36.7655-37.2125a54.6157,54.6157,0,0,1,15.3653-2.3417,34.4828,34.4828,0,0,1,18.0635,4.78c3.5113,2.0973,6.8725,4.4457,10.3048,6.6756A19.3918,19.3918,0,0,0,298.7121,80.2029Zm126.183,57.4557.4943-.17c0-1.3229.0858-2.6523-.0149-3.9674-.4142-5.4063-.8895-10.808-1.3339-16.212a43.09,43.09,0,0,0-4.5262-16.8856c-2.4331-4.59-5.1018-9.0605-7.7881-13.51-7.3984-12.2549-18.3619-20.19-31.36-25.59a44.0918,44.0918,0,0,0-15.7913-3.5464c-9.6958-.2607-18.2894,3.0251-25.9588,8.7048-11.5321,8.54-18.8125,20.1155-23.1255,33.6386a24.5053,24.5053,0,0,0-.8614,6.5441c-.0738,2.146.6411,3.241,2.4592,4.9791a2.1292,2.1292,0,0,0,.4868-.4241c.63-1.0423,1.2913-2.071,1.8374-3.157,4.3688-8.687,10.86-15.5782,18.3255-21.6291a40.4667,40.4667,0,0,1,15.664-7.7244,58.873,58.873,0,0,1,17.48-1.3844,34.8624,34.8624,0,0,1,21.5411,8.417A88.4909,88.4909,0,0,1,417.09,119.0656c1.3407,3.1583,2.5962,6.3527,3.923,9.517C422.2852,131.6171,423.5993,134.634,424.8951,137.6586ZM320.2036,110.8231c2.4358-.8164,4.4095-1.4154,6.3377-2.136a59.3955,59.3955,0,0,1,18.0917-3.8328,139.4355,139.4355,0,0,1,27.7856,1.4381c8.16,1.2505,15.3407,4.8652,22.0669,9.4752a121.4149,121.4149,0,0,1,21.4117,18.7742c2.4924,2.7534,5.1409,5.3655,8.0991,8.4373a23.8538,23.8538,0,0,0-2.012-7.1836c-2.1086-5.23-4.3108-10.4216-6.4316-15.6464a80.4021,80.4021,0,0,0-7.5206-14.0109,82.2928,82.2928,0,0,0-18.7447-20.4559A31.5233,31.5233,0,0,0,373.786,79.44a57.38,57.38,0,0,0-14.8809.0912,39.73,39.73,0,0,0-22.2367,10.2449c-2.5977,2.4-5.0574,4.952-7.542,7.472a46.2757,46.2757,0,0,0-8.1508,11.6453C320.7455,109.3446,320.5949,109.8364,320.2036,110.8231ZM295.35,69.1683c1.2128-5.483,2.3467-10.3265,3.3223-15.2016a13.8388,13.8388,0,0,0,.0836-4.2694,34.5078,34.5078,0,0,0-5.0082-14.3033c-7.8748-12.6608-18.8348-20.0985-34.21-19.5766a166.9932,166.9932,0,0,0-17.1888,1.4067c-14.44,1.997-26.282,8.7938-35.6318,19.9808-6.36,7.61-10.4322,16.3879-13.3505,25.77-.1745.561-.2225,1.1613-.4244,2.2606.7417-.6734,1.092-.9345,1.3726-1.2564,1.018-1.1678,2.0335-2.339,3.0106-3.5409,1.1171-1.374,2.1653-2.8044,3.29-4.1721,10.23-12.4413,22.9457-20.7311,39.1273-22.95,15.8181-2.17,29.6476,1.96,40.7415,13.7792C286.4785,53.4817,291.8882,60.3274,295.35,69.1683Zm13.6558,32.0123c-1.6446-3.3047-2.76-6.3388-5.9652-7.8307a6.4684,6.4684,0,0,1-1.5552-1.2332c-4.5408-4.2521-10.0977-6.2922-16.0992-7.2225A70.6713,70.6713,0,0,0,256.13,86.6767,55.6291,55.6291,0,0,0,235.1228,96.93a27.1455,27.1455,0,0,0-9.4682,14.4651,72.9569,72.9569,0,0,0-1.9014,10.42,40.5161,40.5161,0,0,0,1.5913,17.0549c.6895,2.161,1.3507,2.6441,3.3271,1.6576a19.2546,19.2546,0,0,0,5.0985-3.5833c3.4863-3.5459,6.7912-7.2747,10.0826-11.0062,3.4382-3.898,6.6814-7.97,10.1769-11.8147a47.0363,47.0363,0,0,1,21.923-13.7586c7.9587-2.3342,16.0228-3.3654,24.237-1.7063C302.9793,99.2218,305.6823,100.2151,309.0055,101.1806Zm22.126,350.1348.7149.1794a25.8819,25.8819,0,0,1-.328,5.2074c-.6722,8.5019,1.2268,16.2764,6.7068,22.96,1.9614,2.3922,4.07,4.6741,6.2316,6.8894A51.48,51.48,0,0,1,355.74,504.367a86.6932,86.6932,0,0,1,4.2708,15.3483c.3806-1.3686.5768-2.75.8177-4.1245.897-5.1152,1.6887-10.2531,2.7578-15.3324.6871-3.2641,1.8816-6.5459,4.2829-8.8651,2.4795-2.3947,2.232-4.4172.9183-7.2347-2.0791-4.459-3.1685-9.2025-1.8849-14.1882a5.8689,5.8689,0,0,0,.0136-1.3515c-2.0522-1.0708-4.02-2.0587-5.9513-3.1126a47.6623,47.6623,0,0,1-13.8054-10.7435,24.344,24.344,0,0,1-5.5382-10.4491c-.1024-.4532-.2791-.89-.4214-1.3337a7.9664,7.9664,0,0,0-1.257,3.1971c-.1874,1.0869-.1921,2.2039-.3336,3.3-.1318,1.0215.0839,2.1618-1.0173,3.4348-.8172-5.2625.7462-9.7046,2.2038-14.3552a5.5866,5.5866,0,0,0-1.208.2588,54.7535,54.7535,0,0,1-15.8613,5.6986,4.2519,4.2519,0,0,0-2.2386,1.2439,15.0921,15.0921,0,0,0-3.9914,12.2129,27.4444,27.4444,0,0,0,6.2393,14.4133c1.4,1.71,2.9362,3.3105,4.4451,4.9286,4.2256,4.5311,8.5514,8.9719,12.6883,13.5823,7.6882,8.5683,13.9949,17.9747,17.0874,29.2456a7.0379,7.0379,0,0,0,.7518,1.2356c-.1859-1.1373-.2793-1.8506-.4211-2.5543-2.4774-12.2992-7.4053-23.3629-16.3152-32.4314-1.4724-1.4987-2.8778-3.0658-4.2705-4.64-7.28-8.227-9.4342-17.793-7.3511-28.4384A11.6911,11.6911,0,0,1,331.1315,451.3154Zm-5.4074-152.673c.9933-3.2923,1.613-3.8451,4.6589-3.9172,1.6505-.039,3.306.1983,4.961.2644,3.0908.1235,6.1847.3253,9.2741.2789a8.9112,8.9112,0,0,0,6.0947-2.256c1.6268-1.5,1.8843-2.9452.4878-4.6509a10.8057,10.8057,0,0,0-3.2575-2.7534c-2.8421-1.4664-5.809-2.693-8.7382-3.9876-1.5155-.67-3.0941-1.2049-4.5785-1.9345-1.317-.6475-2.5225-1.5166-2.287-3.2774.17-1.2721,1.1847-2.0407,3.31-2.1883,2.6456-.1837,5.3058-.1811,7.96-.2062,2.5441-.0241,5.0955.1347,7.6309-.0105a14.7617,14.7617,0,0,0,4.4947-.9748c1.6429-.6467,2.0087-2.0059,1.1393-3.523a10.0507,10.0507,0,0,0-1.6815-2.0195c-.703-.7012-1.5261-1.2812-2.2385-1.974-.9779-.9512-1.9166-2.0475-1.18-3.4862.655-1.2785,1.9878-1.2267,3.2314-1.086.6585.0745,1.3066.2632,1.9655.3073,1.9125.128,2.714-.7952,2.2362-2.6091a9.4431,9.4431,0,0,0-5.4554-6.1761c-1.49,3.16-1.49,3.16-5.76,2.728-.7856,2.0412-2.6347,2.0275-4.6081,2.0222-2.2053-.0059-4.414.25-6.6159.45a3.8631,3.8631,0,0,0-2.5723,1.0443c.2015.3781.2591.6192.4115.7489.5883.5007,1.2264.9434,1.8093,1.45a16.15,16.15,0,0,1,2.1662,2.03c1.0451,1.3217.7008,2.6268-.9021,3.11a22.8574,22.8574,0,0,1-4.5593.8072c-3.5256.3116-7.0642.4733-10.592.7627a32.69,32.69,0,0,0-11.2823,2.4791c-3.0665,1.4238-3.2551,2.9409-.7536,5.1991a13.6244,13.6244,0,0,0,2.105,1.6119q3.9846,2.3781,8.0283,4.6563c1.1535.6529,2.393,1.1567,3.53,1.835a9.9812,9.9812,0,0,1,2.0427,1.661,1.3092,1.3092,0,0,1,.2232,1.1775,1.331,1.331,0,0,1-1.04.5949,32.792,32.792,0,0,1-3.953-.3066c-3.3849-.487-6.7467-1.2017-10.1671-.9369-.81,2.0182-.88,2.081-2.4467,1.7589a65.5078,65.5078,0,0,0-7.4629-1.518c-4.4041-.377-8.8369-.4651-13.26-.55a10.3865,10.3865,0,0,0-4.6948.7051,19.05,19.05,0,0,1,1.2817,1.7645,14.2241,14.2241,0,0,1,.701,1.7259c-.5744.2267-1.1379.49-1.7276.6651a6.09,6.09,0,0,1-.9907.0376c-1.7006.1967-2.06,1.024-.9915,2.4292.8008,1.0537,1.8,1.9664,2.5272,3.0636a1.7818,1.7818,0,0,1-1.0642,2.883,8.047,8.047,0,0,1-2.29.2572c-2.102.01-4.2044-.0631-6.3065-.06-2.0827.0027-4.1654.0578-6.6949.0968.6767,1.8991,1.19,3.4438,1.7918,4.9531a1.7542,1.7542,0,0,0,.8981.9081c1.9186.7109,3.8671,1.341,5.8758,2.0231.212-2.6092.5166-2.9627,2.3984-2.8089a10.8183,10.8183,0,0,1,2.249.5127c4.9629,1.5211,9.9243,3.0471,14.8737,4.6114a2.0932,2.0932,0,0,0,2.1437-.31c1.3656-1.0487,2.8106-1.9942,4.3205-3.0509-.1654-.35-.3192-.7525-.5362-1.1171-.2823-.4741-.6572-.8954-.9181-1.3794-1.1045-2.0483-.5238-3.5117,1.8306-3.8142,5.8022-.7456,11.6138-1.54,17.5-.9932C322.1122,298.5511,323.9687,298.5624,325.7241,298.6424ZM105.8554,234.608l-.3966.0252q-.2955,1.2749-.5908,2.55c-.1984.8621-.3791,1.7286-.5937,2.5866A74.3329,74.3329,0,0,1,92.2419,265.45c-3.0426,4.214-6.0292,8.4756-8.86,12.8336A45.9567,45.9567,0,0,0,76.57,296.8276a94.4031,94.4031,0,0,0-.217,23.1692c.68,6.9317,1.6716,13.8322,2.41,20.7589.627,5.8836,1.0886,11.7849,1.5551,16.9258.2464-5.8645.43-12.5009.8251-19.1247a113.4113,113.4113,0,0,1,6.102-31.1516A73.6128,73.6128,0,0,1,95.3237,291.09c.5592-.8416.9258-1.9958,2.83-2.2219-1.6429,3.5339-3.7748,6.3391-5.16,9.51-1.4162,3.241-2.9349,6.45-4.1217,9.775a96.8639,96.8639,0,0,0-2.9689,10.1821c-.8414,3.5439-1.4886,7.1431-2.03,10.7467-.5253,3.4957-.9417,7.02-1.16,10.5463a50.7268,50.7268,0,0,0,.0754,10.5151,13.1429,13.1429,0,0,0,1.0547-3.0723,203.7458,203.7458,0,0,1,21.5413-54.418c2.2891-4.0655,4.8077-7.9691,8.4463-10.99a2.4333,2.4333,0,0,0,.8029-2.9218c-.5243-1.802-.8613-3.6582-1.2893-5.4886-2.5178-10.7663-5.1135-21.5166-6.6414-32.4853Q106.274,237.6883,105.8554,234.608Zm124.398-72.9323c2.709.5091,5.1025-.396,7.35-1.558a120.2115,120.2115,0,0,0,22.2681-14.377c4.864-4.0763,8.8231-8.9969,12.8036-13.899,3.8362-4.7242,7.6348-9.4882,11.6751-14.0346A50.5793,50.5793,0,0,1,297.9062,106.71c3.4782-1.8906,7.1119-3.07,11.1471-2.1224a3.7109,3.7109,0,0,0,1.1078-.1754c-1.1786-1.4225-2.71-1.7669-4.1328-2.2535-7.4158-2.5369-14.9874-2.6259-22.62-1.291-10.29,1.7995-19.4653,5.9242-26.8562,13.4568-2.9393,2.9959-5.58,6.2868-8.3221,9.4735-3.4637,4.0256-6.8533,8.1154-10.3467,12.1146-2.9343,3.3592-6.1538,6.3715-10.6354,7.5908-.0861.0234-.14.1656-.062.0675C228.2206,149.6777,229.2284,155.6263,230.2534,161.6757Zm88.9057,283.6591a84.5214,84.5214,0,0,1-22.3741-.86,99.4843,99.4843,0,0,1-21.4389-6.839c.2517,2.4206.4647,4.47.7074,6.8039a7.9363,7.9363,0,0,1,5.1068,4.5813,26.352,26.352,0,0,1,2.5568,6.79,16.0957,16.0957,0,0,1-6.5381,16.3531,10.7818,10.7818,0,0,1-11.919,1.03,11.2818,11.2818,0,0,1-6.6818-10.3133,19.2543,19.2543,0,0,1,6.3275-14.7991c.6273-.6029,1.2995-1.1593,2.1275-1.8939-1.88-2.4667-1.98-5.26-1.4768-8.105-4.6327-.258-9.043-.381-13.4278-.7818-4.43-.405-8.6282-2.2587-13.602-2.6251a88.8341,88.8341,0,0,1,7.3914,18.9077c1.609,6.5662,1.8508,13.2839,1.9289,20.201,6.0138.2919,11.2171,2.5268,16.5537,4.2813.3151.1035.6342.1954.9541.2834,9.3729,2.5791,18.173,1.3855,26.3605-3.9628a56.3,56.3,0,0,0,11.1188-9.9105A87.2278,87.2278,0,0,1,314.4,453.5518a6.1643,6.1643,0,0,0,1.6646-1.58c1.1435-2.0029,2.1507-4.0838,3.2-6.14C319.303,445.7562,319.2236,445.62,319.1591,445.3348Zm139.0038-79.6943.3551-.0737c-.437-.9823-.8172-1.9946-1.32-2.9421q-6.4533-12.1668-12.95-24.3106c-2.1949-4.0951-4.5585-8.103-6.6558-12.2465a76.46,76.46,0,0,1-7.3081-24.0224,10.0126,10.0126,0,0,1,.3355-2.2234,10.9627,10.9627,0,0,1,1.5131,4.5874,88.8957,88.8957,0,0,0,8.8134,24.5915q2.94,5.3913,6.02,10.7058a267.8086,267.8086,0,0,1,16.4059,33.3277c.4561,1.1133.9474,2.2122,1.4224,3.3178a2.3456,2.3456,0,0,0,.1462-1.6321c-.5471-2.2564-1.157-4.4977-1.6851-6.7584-2.8243-12.09-5.2625-24.2228-4.3468-36.763a4.6393,4.6393,0,0,0-.8558-2.3878,10.6056,10.6056,0,0,0-1.5521-1.72,170.8546,170.8546,0,0,1-19.408-24.3875,68.22,68.22,0,0,1-10.3052-24.9973,110.2653,110.2653,0,0,1-1.5445-22.149,29.8253,29.8253,0,0,1,1.5222-9.1294,4.3361,4.3361,0,0,0-.2424-3.7789,61.8049,61.8049,0,0,1-4.8852-12.3179,20.1778,20.1778,0,0,0-.9521-2.1393c-1.0405,2.65-1.8426,4.6914-2.6438,6.7334-3.2586,8.3051-4.0546,16.91-3.4339,25.7593a100.4873,100.4873,0,0,0,3.95,20.1486c1.1351,4.0426,2.5062,8.0229,3.53,12.0921a150.6,150.6,0,0,0,10.8912,30.5746c2.166,4.3527,4.5641,8.6041,7.0846,12.7634C446.0238,346.0992,452.1209,355.8531,458.1629,365.6405ZM300.0938,77.7252c.5114-2.897.8244-5.3148,1.3733-7.6779a51.9839,51.9839,0,0,1,41.1488-39.15c5.786-1.0519,11.6007-1.7616,17.489-.6966,4.1187.745,7.9545,2.1263,10.91,5.1832a5.09,5.09,0,0,0,4.4188,1.5774,109.779,109.779,0,0,1,21.5475.4936,4.4768,4.4768,0,0,0,1.1624-.1491c-.0826-.4138-.06-.6761-.1782-.8271a20.1045,20.1045,0,0,0-1.51-1.7616,78.6521,78.6521,0,0,0-18.76-14.1472,48.1731,48.1731,0,0,0-17.6147-5.5556,62.59,62.59,0,0,0-26.8144,3.23c-14.68,4.8806-24.8351,14.479-30.1292,29.1432-2.8733,7.9587-4.4622,16.1944-5.8654,24.496C296.8326,74.4807,298.1519,75.9831,300.0938,77.7252Zm70.6181-40.4613a16.2223,16.2223,0,0,0-1.4327-1.43,22.0738,22.0738,0,0,0-12.0749-4.117,57.7138,57.7138,0,0,0-15.8168,1.3872A50.1788,50.1788,0,0,0,302.83,72.9218c-.6728,3.7713-1.5213,7.66.7536,11.2952a6.9074,6.9074,0,0,1,.3568,1.27c.4924,1.3392.9339,2.7053,1.5406,3.9924.7535,1.5985,1.6354,3.1379,2.4981,4.6825a21.39,21.39,0,0,0,1.2747,1.7645,33.0472,33.0472,0,0,0,1.8159-7.86c.886-7.22,2.7913-14.0721,6.8181-20.2518A59.0091,59.0091,0,0,1,336.1125,49.723a81.7084,81.7084,0,0,1,24.0366-10.1771C363.4719,38.7287,366.84,38.0942,370.7119,37.2639ZM285.28,215.7108c6.6186,2.2907,12.8014,4.61,19.0978,6.5633a98.0525,98.0525,0,0,1,21.0893,9.5723c9.6036,5.7074,19.2813,11.29,28.9512,16.8853,2.0068,1.1612,4.1033,2.1721,6.1853,3.1978a11.6227,11.6227,0,0,0,6.1613.9466c3.409-.2641,4.3224-1.9325,2.6654-4.8386a18.1338,18.1338,0,0,0-1.2936-1.9266,34.1888,34.1888,0,0,0-8.3519-7.5147c-3.2955-2.2355-6.6717-4.3524-9.9558-6.604a57.3873,57.3873,0,0,0-15.7511-7.6573q-4.7567-1.4543-9.4444-3.132a104.6241,104.6241,0,0,0-36.8445-5.7293C287.0693,215.4822,286.3512,215.6061,285.28,215.7108ZM215.1784,377.5366a6.77,6.77,0,0,0-1.6071,4.2708,39.294,39.294,0,0,0,.34,5.9422,54.6613,54.6613,0,0,0,7.9591,20.2449c3.6769,5.789,7.5241,11.474,11.0491,17.3532a8.34,8.34,0,0,0,6.5961,4.3509c2.7423.3208,5.5022.5,8.2377.8655,4.7112.63,9.4084,1.3643,14.1141,2.0368a8.7589,8.7589,0,0,0,3.9661-.05C243.5933,418.842,227.5876,400.14,215.1784,377.5366ZM425.861,45.4551c-.4089-1.4229-.6425-2.4732-1.01-3.4742a26.9509,26.9509,0,0,0-7.0217-10.3456,60.61,60.61,0,0,0-22.6795-13.3841,17.0543,17.0543,0,0,0-4.215-.8475,28.1086,28.1086,0,0,0-11.28,1.5808c.9223.63,1.4394,1.025,1.9944,1.3563a73.9365,73.9365,0,0,1,14.9764,12.0105,17.2755,17.2755,0,0,1,2.92,3.5805,4.5425,4.5425,0,0,0,3.54,2.5317A96.0856,96.0856,0,0,1,423.968,44.89,19.4287,19.4287,0,0,0,425.861,45.4551Zm-1.4831,262.2005c-4.6879-.347-5.5589.8358-4.0311,4.8121a13.4133,13.4133,0,0,1,1.04,4.4628c.0464,2.9717-2.0808,4.69-5.0188,4.2628-1.3071-.19-2.5749-.6366-3.8743-.8984a4.7746,4.7746,0,0,0-3.7452.2065c.6789.9452,1.2411,1.7163,1.7907,2.4962a24.7563,24.7563,0,0,1,2.0557,3c1.3538,2.698.2161,4.28-2.85,3.996a11.4119,11.4119,0,0,1-2.8853-.7105c-1.3442-.501-2.6193-1.1847-3.9552-1.7111-1.8334-.7225-3.696-1.3707-5.99-2.2139.0872,1.7231.146,3.0137.22,4.3036a2.6612,2.6612,0,0,0,2.1632,2.5848,30.527,30.527,0,0,1,3.436,1.1591,112.3094,112.3094,0,0,0,17.6747,5.5931,6.8491,6.8491,0,0,0,4.7963-.13,3.84,3.84,0,0,0-.7131-3.8119,26.7977,26.7977,0,0,1-2.04-3.0191,1.37,1.37,0,0,1,.7587-2.1456,22.9948,22.9948,0,0,1,2.256-.5215,17.6092,17.6092,0,0,0,2.8552-.8153,2.1693,2.1693,0,0,0,1.26-2.9924,8.1526,8.1526,0,0,0-.676-1.51c-.8944-1.5923-1.5019-3.1837-.7038-5.0434a2.439,2.439,0,0,0-.1588-1.5887C426.8678,314.2071,425.644,311.0115,424.3779,307.6556ZM265.3728,243.4883c-2.6171-1.261-4.918-2.309-7.1618-3.4675-2.3554-1.2161-4.66-2.53-6.98-3.8159-2.9947-1.66-5.974-3.3477-8.975-4.9961-1.7415-.9566-3.47-1.9546-5.2788-2.7676-4.7347-2.1282-9.5571-4.065-14.2609-6.2575-12.8259-5.9785-25.6281-11.9963-38.099-18.7168-5.3328-2.8739-11.0881-4.9667-16.6663-7.38a2.9,2.9,0,0,0-2.9034-.135,8.3962,8.3962,0,0,0,.8624.6575c4.9176,2.7515,9.8909,5.4076,14.7513,8.2565a273.4154,273.4154,0,0,0,31.1647,16.1982c9.7558,4.147,19.2147,8.9941,28.79,13.562,6.8785,3.2812,14.021,6.0325,20.4576,10.2081a23.7,23.7,0,0,0,3.07,1.4161C264.5927,245.2424,264.94,244.4623,265.3728,243.4883Zm194.8266,88.36c-.3291,18.5319,4.0781,35.773,9.3474,52.8773a2.38,2.38,0,0,0,.24-1.24c.053-6.629-.0109-13.2617.1976-19.8857.1667-5.2958.4889-10.6254,3.8936-14.9748C471.2122,343.8268,463.3849,334.1541,460.1994,331.8481ZM264.6507,459.8992a13.672,13.672,0,0,0,2.5714,8.7126c2.08,2.8484,5.2929,3.02,7.53.312a12.247,12.247,0,0,0,2.12-4.0519,19.9518,19.9518,0,0,0-.1858-12.6613,17.3006,17.3006,0,0,0-1.7375-3.5321,2.3333,2.3333,0,0,0-1.5442-1.08c-2.08-.0472-4.1348-.0336-5.55,2.0629A18.4062,18.4062,0,0,0,264.6507,459.8992Zm143.6-176.5054,7.159-6.3649c-.4736-2.0489-.9838-4.2566-1.5253-6.5994-3.3659.2052-6.4588.2-9.4907.6275a16.1116,16.1116,0,0,0-9.9209,5.4805A25.8413,25.8413,0,0,1,408.2505,283.3938Zm5.2618-14.6866a69.5336,69.5336,0,0,0-1.17-9.451c-2.4594.3558-4.6385.9381-6.2562,2.4957-2.613,2.5158-5.0357,5.23-7.5083,7.8893a12.8913,12.8913,0,0,0-1.126,2.0178C402.8256,269.1738,408.1129,269.8219,413.5123,268.7072ZM237.1018,431.17c.0271.3927-.0423.7046.0683.794,1.8111,1.4654,4.1387,1.2791,6.22,1.8877,9.0148,2.6368,18.2125,2.7948,27.81,2.027a3.61,3.61,0,0,0-2.8331-1.2185c-3.31-.1634-6.6206-.43-9.9108-.826-4.0619-.4886-8.0972-1.1952-12.1559-1.7155C243.2516,431.7283,240.185,431.483,237.1018,431.17Zm43.3155-181.9657a14.9482,14.9482,0,0,1-7.8443-3.8436,7.52,7.52,0,0,0-1.3545-.9395,3.4168,3.4168,0,0,0-4.6194,1.0169c-.87,1.3491-.2834,3.1656,1.5132,4.1178,2.6038,1.38,5.2779,2.6274,8.1463,4.0419C277.4594,252.33,278.72,250.9981,280.4173,249.2047ZM270.3586,437.698c-2.6141-.3107-3.5861,1.2161-3.5684,3.5716.0206,2.7544,2.06,4.9558,4.3886,4.8543,1.8384-.08,3.1686-1.9533,3.1085-4.3772C274.2143,438.8094,273.116,437.6776,270.3586,437.698Zm27.6892-191.0222a31.2741,31.2741,0,0,0-.27,3.1215,1.8313,1.8313,0,0,0,2.9178,1.6123c1.1863-.75,1.8174.2233,2.6857.2636,1.0342.0479,1.2878-1.7449,2.6679-1.4857a9.597,9.597,0,0,0,2.3043.1281c1.314-.0761,2.6713-.1053,3.6864-1.0632l-5.0573-1.2946c-.7949.3131-1.9991.8747-3.2569,1.2626-1.9847.6121-2.6364.3212-3.4347-1.7785C299.8469,246.2737,299.2351,246.2075,298.0478,246.6758ZM178.4442,307.7032c1.0118,1.81,1.1129,1.8574,2.5522.9516.1479-.0931.0834-.5239.1364-.9516ZM418.0945,533.75l-.3173.2745,1.0527,1.1483.2525-.22Z" transform="translate(-65.766 -12.3142)"/><path d="M187.4486,588.4755c-.3049-3.9537.7517-7.8415.8407-11.78.0925-4.09.4747-8.1735.5661-12.2635.0891-3.9821.0752-7.9731-.086-11.9524-.1657-4.0887-.4922-8.1747-.8816-12.2492-.3758-3.9314-.9217-7.8465-1.43-12.08.4616.5085,1.007.8493,1.1486,1.3133a26.3562,26.3562,0,0,1,1.0829,4.4994c1.94,16.1968,2.6938,32.419.8192,48.6815-.1774,1.5384-.391,3.0745-.6586,4.5993a5.9722,5.9722,0,0,1-.61,1.3616Z" transform="translate(-65.766 -12.3142)"/><path d="M486.841,448.4746c13.1912,5.483,42.7344,41.5079,47.9385,58.3248-1.08.1831-1.273-.71-1.5984-1.2806-2.6842-4.7083-5.2571-9.4818-8.0161-14.1454-9.1859-15.5267-21.3068-28.4726-35.2108-39.8417A10.0748,10.0748,0,0,1,486.841,448.4746Z" transform="translate(-65.766 -12.3142)"/><path d="M331.45,517.3115a8.5628,8.5628,0,0,1,.9555,4.5218c-.0089,2.32-.1151,4.64-.1314,6.96-.0846,12.1168,1.7961,23.9889,4.496,35.7561.4691,2.0446,1.0133,4.0721,1.4749,6.1183.2114.9363.3065,1.8989.48,3.0126-1.4575-.0938-1.4785-1.1314-1.659-1.857-1.1464-4.6072-2.335-9.2082-3.3058-13.8539a158.6493,158.6493,0,0,1-2.707-39.9052C331.061,517.8835,331.2333,517.71,331.45,517.3115Z" transform="translate(-65.766 -12.3142)"/><path d="M198.1128,420.4923a10.15,10.15,0,0,1,1.0107,1.1442c2.5987,3.9873,5.1112,8.0323,7.7743,11.9758,5.551,8.2194,8.7225,17.3526,10.6194,27.0009a139.1957,139.1957,0,0,1,2.7429,25.705c.0431,4.9752.4315,9.9466.5893,14.9221a20.2775,20.2775,0,0,1-.36,3.6227,15.1494,15.1494,0,0,1-.6207,2.0326c-.2356-.4545-.4155-.637-.4088-.8122a262.5512,262.5512,0,0,0-.8506-29.8308,112.856,112.856,0,0,0-5.5419-27.59,71.241,71.241,0,0,0-8.5652-16.4415c-2.0145-3.0461-3.9584-6.14-5.885-9.2422a15.2043,15.2043,0,0,1-.95-2.2447Z" transform="translate(-65.766 -12.3142)"/><path d="M140.0321,251.2564c.9715,2.2055,1.7443,4.1157,2.6406,5.9661,2.8894,5.9651,5.7428,11.95,8.7619,17.85a79.3445,79.3445,0,0,1,7.5957,25.2651c.4207,2.9523.8287,5.9073,1.1666,8.87.1214,1.0641.0195,2.1537.0195,4.0154-.7-1.0945-1.1861-1.5316-1.27-2.0355-.7053-4.2482-1.3459-8.5074-1.989-12.7658a75.837,75.837,0,0,0-7.7372-24.1848c-2.4653-4.6933-4.7477-9.484-7.0515-14.26-.8133-1.6861-1.481-3.4459-2.1484-5.1974A4.1226,4.1226,0,0,1,140.0321,251.2564Z" transform="translate(-65.766 -12.3142)"/><path d="M121.4771,260.005c.4053,1.3321.7479,2.2139.94,3.1274,3.2793,15.5614,6.615,31.1116,9.7693,46.6984,1.3393,6.6179,2.0451,13.3231.93,20.0866a35.28,35.28,0,0,1-2.3458,8.9506c-.1562-.6372-.3356-.9338-.2674-1.1536,3.0005-9.668,2.5811-19.3093.35-29.0976-3.4107-14.964-6.4621-30.01-9.6359-45.0277A4.0953,4.0953,0,0,1,121.4771,260.005Z" transform="translate(-65.766 -12.3142)"/><path d="M156.9882,395.9829c.1817-1.0663.297-1.9115.4719-2.7442a51.54,51.54,0,0,1,11.773-23.8283c2.1161-2.4126,4.2468-4.8134,6.3157-7.2662a33.202,33.202,0,0,0,6.6133-11.4125,1.8786,1.8786,0,0,1,1.178-1.1515,9.0881,9.0881,0,0,1-.1253,1.5153,22.7547,22.7547,0,0,1-4.0632,8.293c-2.1438,2.8127-4.3653,5.5814-6.7386,8.201a58.8635,58.8635,0,0,0-14.1562,26.3023,9.2216,9.2216,0,0,1-.5611,1.5568C157.63,395.6,157.4015,395.68,156.9882,395.9829Z" transform="translate(-65.766 -12.3142)"/><path d="M117.76,226.1817c0-2.2959-.055-4.5934.0107-6.8874a87.9793,87.9793,0,0,1,1.97-17.753,45.09,45.09,0,0,1,4.5651-11.6894c3.0464-5.4569,7.8306-8.55,13.69-10.2117.1667-.0472.3887.1005.9789.2713-1.22.56-2.1491,1.0561-3.1267,1.4229a21.0347,21.0347,0,0,0-11.9188,11.354,53.701,53.701,0,0,0-4.7236,19.5254c-.2688,4.0788-.3679,8.1688-.5524,12.2533-.0239.53-.1032,1.0566-.1568,1.5847Z" transform="translate(-65.766 -12.3142)"/><path d="M118.578,379.9067a12.4735,12.4735,0,0,1,.2833,1.8208c.0689,6.2446,1.5219,12.2344,3.2153,18.1952,1.4157,4.9835,2.9551,9.9548,3.942,15.0284.6,3.0867.2809,6.357.3116,9.5454a2.0665,2.0665,0,0,1-.8862,1.49c.0312-.5232.0368-1.0493.0976-1.569a30.1054,30.1054,0,0,0-.95-11.477c-1.0129-3.7232-2.1794-7.4053-3.3142-11.0945-1.8189-5.9135-3.6024-11.8333-3.6845-18.0962-.0169-1.29.0789-2.5815.1227-3.8722Z" transform="translate(-65.766 -12.3142)"/><path d="M104.7226,361.86c-1.1859-1.0672-1.345-2.47-1.6426-3.8287a32.7044,32.7044,0,0,1,.1182-13.1862c1.1318-5.9665,2.5747-11.874,3.9-17.8033.0378-.1691.2557-.2979.5268-.5967.7938,1.1123.2787,2.1878.0778,3.1535-.6522,3.1364-1.41,6.251-2.1427,9.37a54.34,54.34,0,0,0-1.6689,17.0895C104.0565,358.0017,104.4393,359.9265,104.7226,361.86Z" transform="translate(-65.766 -12.3142)"/><path d="M182.4993,137.8467c-.5321,7.6614-8.4541,21.47-14.1636,24.6991.5847-1.5888,1.7453-2.2707,2.4579-3.2526.777-1.0706,1.63-2.0879,2.3733-3.18s1.4279-2.2294,2.0735-3.3831c.7-1.25,1.3537-2.5282,1.9732-3.82.5717-1.1923,1.0866-2.413,1.5981-3.633s.9412-2.4759,1.4928-3.6766C180.83,140.4556,180.9451,139.0624,182.4993,137.8467Z" transform="translate(-65.766 -12.3142)"/><path d="M192.1486,494.4312c-.7042,7.088,1.5952,13.4667,4.9017,19.9461C192.846,511.8979,189.9684,499.7135,192.1486,494.4312Z" transform="translate(-65.766 -12.3142)"/><path d="M205.8515,360.6161c-5.1531,5.1573-6.5021,11.9678-8.1292,18.6536C196.8309,373.458,200.9249,363.9255,205.8515,360.6161Z" transform="translate(-65.766 -12.3142)"/><path d="M177.7857,323.2374a29.6292,29.6292,0,0,1,7.0324-8.9295,7.8131,7.8131,0,0,1,4.6079-1.9809,56.3105,56.3105,0,0,0-4.7412,3.4661,29.4079,29.4079,0,0,0-3.232,3.7413c-1.0629,1.363-2.0266,2.8033-3.0337,4.21Z" transform="translate(-65.766 -12.3142)"/><path d="M129.0154,228.9867a63.6458,63.6458,0,0,0-1.6756,6.9327,56.1607,56.1607,0,0,0-.0586,6.8079C125.3328,238.7987,126.135,232.3461,129.0154,228.9867Z" transform="translate(-65.766 -12.3142)"/><path d="M287.9139,386.6582c1.9215,1.0319,3.8664,2.0228,5.7572,3.1079a12.5159,12.5159,0,0,0,5.34,1.62,42.4824,42.4824,0,0,0,15.4392-1.4154,108.0681,108.0681,0,0,1,22.5564-3.6329,14.5176,14.5176,0,0,1,8.2942,1.8984,22.8808,22.8808,0,0,0,10.82,2.7856,23.307,23.307,0,0,1,5.5656.793,14.5437,14.5437,0,0,1,4.4707,2.0849c3.81,2.708,3.8208,6.8888.0536,9.6121a7.0852,7.0852,0,0,0-2.2924,2.7061c-4.9953,9.9163-13.1263,15.6306-23.9794,17.4668a30.7975,30.7975,0,0,1-19.0882-2.69,26.725,26.725,0,0,1-5.8317-3.7666A123.3386,123.3386,0,0,1,300.16,402.07a5.5971,5.5971,0,0,1-1.2693-2.53,9.6885,9.6885,0,0,1,1.8.8056,107.1247,107.1247,0,0,0,15.45,9.065,51.8566,51.8566,0,0,0,17.4016,5.22c6.4068.6705,12.6012.0492,18.2782-3.3479a14.6659,14.6659,0,0,0,5.6458-5.7834c-2.3649-.6718-4.4515-1.3287-6.6682.1759a9.73,9.73,0,0,1-7.3477,1.3665c-4.02-.7262-8.0371-1.5553-11.9635-2.6659a13.06,13.06,0,0,1-4.8367-2.7669,10.0867,10.0867,0,0,0-4.6461-2.3072c-5.7209-1.2883-11.4653-2.4966-17.1306-4a53.099,53.099,0,0,1-16.2937-7.26,10.4,10.4,0,0,1-.9758-.8479Zm24.1906,5.19c1.889,1.0375,3.5789.4768,5.2988.0989,3.2269-.7091,6.4906-.8646,9.2117,1.3163a8.516,8.516,0,0,0,8.6583,1.68c2.8552-.9727,5.4452-.1806,7.9192,1.2753.9532.5612,1.8689,1.2035,2.8676,1.6666a6.983,6.983,0,0,0,6.6832-.3347,2.8607,2.8607,0,0,0,1.2861-3.455,2.5036,2.5036,0,0,0-2.4813-2.2224,14.0552,14.0552,0,0,1-6.8136-2.393,14.0967,14.0967,0,0,0-9.89-1.9013c-5.24.8436-10.4766,1.7192-15.6991,2.6662C316.7793,390.6742,314.45,391.3076,312.1045,391.8483Z" transform="translate(-65.766 -12.3142)"/><path d="M177.1675,263.8924a8.39,8.39,0,0,1-.1466-1.8711c.9641-4.0788-.5672-7.4209-3.2441-10.2785a36.0242,36.0242,0,0,0-4.8446-3.9732c-1.2347-.9238-2.6363-1.6246-3.8707-2.5488a10.3279,10.3279,0,0,1-4.3982-7.8311,17.0747,17.0747,0,0,1,3.9883-12.6225c2.86-3.3664,7.073-4.5455,10.7314-3.0538a6.2306,6.2306,0,0,1,4.2878,5.3965,9.0516,9.0516,0,0,1-.3385,1.7956c-.635-1.118-.9915-1.732-1.3352-2.3532a5.9445,5.9445,0,0,0-6.9542-3.15c-4.6658,1.1012-6.8555,4.5141-8.0356,8.802-1.1689,4.2472-.74,8.1759,2.8171,11.179,1.8484,1.56,3.94,2.8348,5.9374,4.2159a17.3713,17.3713,0,0,1,6.2316,7.1522,10.9343,10.9343,0,0,1,.9755,5.807A4.4905,4.4905,0,0,1,177.1675,263.8924Z" transform="translate(-65.766 -12.3142)"/><path d="M181.2045,216.9583a13.0583,13.0583,0,0,1,1.8483,1.7194,21.8415,21.8415,0,0,1,3.9879,10.3849c.6607,7.69-1.53,14.5767-5.9231,17.633.6007-1.1275.9944-1.8606,1.3828-2.5964,3.9789-7.5367,4.4685-15.1044.2816-22.7556C182.1368,220.1645,181.08,219.0932,181.2045,216.9583Z" transform="translate(-65.766 -12.3142)"/><path d="M328.028,353.5953a3.3074,3.3074,0,0,1,.3871.7791c.4741,3.9969,2.621,6.3885,7.8255,6.31a80.6584,80.6584,0,0,0,9.5082-1.1555,13.5064,13.5064,0,0,1,3.7109-.247,8.8058,8.8058,0,0,1-1.427.6924c-3.9364,1.1143-7.9,2.1477-12.0377,1.941a15.21,15.21,0,0,1-4.2057-.7424c-3.0815-1.0747-4.59-3.59-4.3994-6.9723C327.3982,354.0534,327.6732,353.9218,328.028,353.5953Z" transform="translate(-65.766 -12.3142)"/><path d="M164.5407,266.0243c-.3236.2087-.8069.7739-1.2944.7776a1.4271,1.4271,0,0,1-1.4092-1.4949,1.3125,1.3125,0,0,1,1.5466-1.254C164.1544,264.1651,164.6477,264.8559,164.5407,266.0243Z" transform="translate(-65.766 -12.3142)"/><path d="M291.3936,417.4875c.4931.6636,1.0219,1.0677.9913,1.4237-.0286.3335-.6125.7368-1.0275.8648-.1791.0552-.7915-.52-.7751-.7819C290.6084,418.5754,290.9946,418.1792,291.3936,417.4875Z" transform="translate(-65.766 -12.3142)"/><path d="M446.7045,138.3126c-.0655.85-.0624,1.7125-.207,2.5491-1.7888,10.346-3.7411,20.666-5.3661,31.0373a159.2009,159.2009,0,0,0-1.4971,35.7357c.7949,11.4445,3.1565,22.5717,8.6031,32.8125a89.0671,89.0671,0,0,0,5.9564,9.5574,27.5967,27.5967,0,0,0,9.8916,8.6741,8.4872,8.4872,0,0,1,1.1293.6822c.161.1187.2359.3541.5227.8128a12.719,12.719,0,0,1-2.0189-.4641,24.0581,24.0581,0,0,1-7.56-5.2993c-4.7725-4.7592-8.1232-10.4712-10.8982-16.5342a83.5313,83.5313,0,0,1-6.6818-25.2221c-1.8293-15.51-.79-30.9215,1.7711-46.25,1.4385-8.61,3.2194-17.1628,4.87-25.7368a23.2951,23.2951,0,0,1,.7315-2.4132Z" transform="translate(-65.766 -12.3142)"/><path d="M471.8312,169.4724c.4319.4684.9021.9072,1.2895,1.41,2.9053,3.77,5.6384,7.6847,8.7171,11.3062,9.6757,11.3818,15.1813,24.5662,17.39,39.2318,1.4991,9.9532,3.144,19.8884,4.4091,29.8715a90.0535,90.0535,0,0,1,.2338,18.5652c-.1388,1.718-.3648,3.4594-1.7988,4.8527a12.8507,12.8507,0,0,1,.15-1.4c1.1585-5.3689.9674-10.8044.5747-16.2084a306.16,306.16,0,0,0-6.3591-41.9689,68.6947,68.6947,0,0,0-12.9341-28.1095c-3.5952-4.6343-7.0782-9.3566-10.5614-14.0764C472.256,172.0168,471.3581,171.1231,471.8312,169.4724Z" transform="translate(-65.766 -12.3142)"/><path d="M459.9787,182.1667c.3238.3467.7865.6377.9512,1.0482,3.6087,8.9941,9.0294,16.9536,14.18,25.0769,3.0171,4.7587,5.964,9.5763,8.656,14.5233a52.0479,52.0479,0,0,1,6.5773,21.0519,35.611,35.611,0,0,1,.0769,4.9646,13.8705,13.8705,0,0,1-1.2454,5.1c0-.9392-.0655-1.8837.01-2.8168a44.4819,44.4819,0,0,0-5.1562-24.34c-2.4775-4.8062-5.3013-9.4418-8.1234-14.06-2.9393-4.81-6.2415-9.4049-9.0527-14.2852-2.4758-4.2978-4.5194-8.8469-6.6887-13.3166a14.1193,14.1193,0,0,1-.7125-2.6909Z" transform="translate(-65.766 -12.3142)"/><path d="M501.0884,351.4216a10.2952,10.2952,0,0,1-.8655-.935c-.7794-1.0737-1.5812-2.1365-2.2821-3.261a118.693,118.693,0,0,0-22.2646-26.2013,94.0512,94.0512,0,0,1-11.8788-12.4857,44.3971,44.3971,0,0,1-8.3123-16.0954c-.3064-1.1692-.97-2.4169-.1012-4.2073a8.4769,8.4769,0,0,1,.7188,1.3855c2.2025,8.971,7.1466,16.3535,13.4063,22.9333,3.0474,3.2032,6.1916,6.3269,9.45,9.3136a98.8864,98.8864,0,0,1,18.6816,22.7266c1.2788,2.1716,2.65,4.2886,3.9792,6.4307Z" transform="translate(-65.766 -12.3142)"/><path d="M390.3979,47.0169c4.5456,1.6841,9.213,3.1012,13.6115,5.1077,9.27,4.2288,17.1409,10.4974,24.3177,17.6588A117.6493,117.6493,0,0,1,448.0664,96.341a24.6558,24.6558,0,0,1,.9629,2.2992c-1.4151-.1622-1.6227-1.1219-2.0147-1.7818a160.96,160.96,0,0,0-11.4918-17.0595,99.4344,99.4344,0,0,0-25.0715-23.0051,49.4667,49.4667,0,0,0-11.0571-5.2606c-2.2035-.7272-4.3682-1.579-6.5228-2.4433-.9963-.4-1.9268-.9637-2.8871-1.4532Z" transform="translate(-65.766 -12.3142)"/><path d="M451.1633,125.0753a8.4008,8.4008,0,0,1,.9192,1.5059c.742,2.0819,1.3089,4.2309,2.1317,6.2784,2.0147,5.0143,4.8924,9.4146,9.4224,12.5618a10.5931,10.5931,0,0,1,1.0641,1.1164,9.9153,9.9153,0,0,1-2.0723-.5466,20.8054,20.8054,0,0,1-6.9484-7,39.7366,39.7366,0,0,1-4.9838-12.2331,6.6172,6.6172,0,0,1-.0162-1.5441Z" transform="translate(-65.766 -12.3142)"/><path d="M459.4831,208.4924a68.07,68.07,0,0,0,7.2662,27.5618c-.3488-.2547-.8243-.4338-1.0276-.7752a45.3071,45.3071,0,0,1-6.5372-25.8837A3.5432,3.5432,0,0,1,459.4831,208.4924Z" transform="translate(-65.766 -12.3142)"/><path d="M470.76,283.9581c3.6376,2.3646,6.9272,5.609,8.1978,8.0849-.0863.05-.17.1347-.26.1418a.4371.4371,0,0,1-.3083-.0892q-3.983-3.8852-7.9545-7.782Q470.5967,284.1353,470.76,283.9581Z" transform="translate(-65.766 -12.3142)"/><path d="M470.4352,284.3137l-2.5833-1.9086a3.2026,3.2026,0,0,1,2.9078,1.553Q470.5968,284.1352,470.4352,284.3137Z" transform="translate(-65.766 -12.3142)"/><path d="M409.9833,476.0107a14.7615,14.7615,0,0,1-1.0721-2.2266c-2.85-9.7094-8.8885-16.9292-17.3248-22.2845-4.4812-2.8447-8.9905-5.6454-13.4642-8.5016-2.6076-1.6649-5.2824-3.2548-7.7273-5.1377-3.9041-3.0068-5.6582-7.2426-6.1735-12.047-.02-.1845.1512-.3894.3308-.8173a10.1019,10.1019,0,0,1,1.1559,3.3739,14.28,14.28,0,0,0,5.4626,8.4623,61.4372,61.4372,0,0,0,5.2248,3.5147,244.3269,244.3269,0,0,1,20.4812,13.5295c6.8809,5.1,11.1092,11.8851,13.465,19.9793.175.6012.2452,1.233.3642,1.8505Z" transform="translate(-65.766 -12.3142)"/><path d="M408.2952,421.7692c-2.1524-.8529-2.8541-2.4782-3.5489-4.0772a34.611,34.611,0,0,1-2.4975-18.1725c1.0476-8.8139,4.4142-16.8316,8.78-24.4708a15.1282,15.1282,0,0,1,1.4163-1.6643c.0557,1.0635.2424,1.5842.0749,1.9364-.9011,1.8944-1.9261,3.73-2.8425,5.6172a59.7912,59.7912,0,0,0-5.7518,17.56,36.653,36.653,0,0,0,1.3549,17.3416A48.39,48.39,0,0,0,408.2952,421.7692Z" transform="translate(-65.766 -12.3142)"/><path d="M413.0126,455.1888c-.6586-.9307-1.32-1.7492-1.8566-2.6423a58.8511,58.8511,0,0,0-13.3854-15.8553,20.7536,20.7536,0,0,1-5.4-6.638,12.497,12.497,0,0,1-.6306-2.3842c.6647.3028,1.0637.3506,1.1822.5583,2.2285,3.9074,5.4407,6.9468,8.8057,9.8085,4.99,4.2438,8.4345,9.5739,11.2449,15.386a6.6522,6.6522,0,0,1,.3883,1.244C413.3787,454.735,413.25,454.8422,413.0126,455.1888Z" transform="translate(-65.766 -12.3142)"/><path d="M443.5134,385.2774c-1.9862-4.6537-.26-11.3736,3.6328-14.7727-.1559,2.8448-2.253,4.6943-2.6282,7.1169C444.1511,379.9906,443.8892,382.3759,443.5134,385.2774Z" transform="translate(-65.766 -12.3142)"/><path d="M371.5094,456.8676a18.2381,18.2381,0,0,1-10.9564-14.3268C366.1674,454.3109,366.6877,452.4267,371.5094,456.8676Z" transform="translate(-65.766 -12.3142)"/><path d="M390.5227,401.3043a14.9778,14.9778,0,0,1-.0746-10.8782c0,1.798-.1115,3.6049.0311,5.3915.1449,1.8166.54,3.6133.8259,5.4187Z" transform="translate(-65.766 -12.3142)"/><path d="M178.395,182.6118c2.9219-.2139,4.7577.8094,6.6864,1.556a42.7653,42.7653,0,0,0,6.86,2.3251c8.494,1.7068,15.17-1.4459,20.2624-8.1929a24.1183,24.1183,0,0,0,4.6244-11.9128c.1612-1.3551-.1977-2.88.8585-4.1061,1.2168.8049,1.0733,1.99,1.0268,3.0458-.53,12.02-9.7373,20.4085-17.1012,22.1681a24.8054,24.8054,0,0,1-15.5717-1.3942C183.7138,185.1414,181.4554,184.0158,178.395,182.6118Z" transform="translate(-65.766 -12.3142)"/><path d="M464.7318,404.368c-3.3151-4.0838-5.7232-15.4424-4.5746-21.5564.32.5.6535.7833.6748,1.0887a72.393,72.393,0,0,0,3.8838,19.0607A5.13,5.13,0,0,1,464.7318,404.368Z" transform="translate(-65.766 -12.3142)"/><path d="M247.6877,171.973c3.9387-2.5611,7.9586-5.0073,11.7934-7.7155a141.8606,141.8606,0,0,0,11.2948-8.6642A126.0666,126.0666,0,0,0,280.918,145.61c3.1818-3.47,6.049-7.228,9.5607-10.5784a8.9961,8.9961,0,0,1-.7024,1.91,82.203,82.203,0,0,1-11.16,13.5166c-8.6126,8.5424-18.504,15.3567-29.02,21.3113a13.2494,13.2494,0,0,1-1.6677.6731Z" transform="translate(-65.766 -12.3142)"/><path d="M349.8655,96.8838a6.3778,6.3778,0,0,1,1.1586-.9955,44.7487,44.7487,0,0,1,13.683-4.7864,20.1037,20.1037,0,0,1,10.7029,1.31c5.238,2.1079,9.0608,6.1181,12.9249,10.2051a6.2479,6.2479,0,0,1-1.6156-.5959c-2.05-1.4973-4.09-3.0143-6.0606-4.6143-6.1087-4.96-12.9149-5.88-20.2568-3.5-2.515.8154-4.9444,1.8923-7.4233,2.822-.8843.3317-1.7993.5816-2.7.8689Z" transform="translate(-65.766 -12.3142)"/><path d="M347.2039,464.5023c3.45,6.3537,7.7062,12.2555,10.35,19.065a42.3421,42.3421,0,0,1,3.158,13.1292,3.2309,3.2309,0,0,1-.7139,2.2254,3.5637,3.5637,0,0,1-.3822-.9858c-.5557-8.3529-3.55-15.8622-7.83-22.948-1.4814-2.4522-2.865-4.9661-4.2148-7.4938a18.4258,18.4258,0,0,1-.9591-2.71Z" transform="translate(-65.766 -12.3142)"/><path d="M325.1547,450.8121a18.9482,18.9482,0,0,0,.2747,10.8986A9.5274,9.5274,0,0,1,325.1547,450.8121Z" transform="translate(-65.766 -12.3142)"/><path d="M100.922,265.4944a10.7352,10.7352,0,0,1-1.0463,1.1772c-5.7915,4.8952-9.67,11.122-12.4235,18.0811-1.2957,3.2746-2.2815,6.6711-3.4425,10a20.5086,20.5086,0,0,1-1.0534,2.132c-.7325-2.3042.026-5.4654,2.8671-12.393,3.1782-7.75,7.5272-14.6226,14.4974-19.4926Z" transform="translate(-65.766 -12.3142)"/><path d="M419.9444,249.6265c.4129.9078.6332,1.17.6385,1.4368.1049,5.2354.1849,10.4712.2759,16.0845C419.3361,263.798,418.957,256.4649,419.9444,249.6265Z" transform="translate(-65.766 -12.3142)"/><path d="M272.7225,440.8768a2.4622,2.4622,0,0,1-2.107,2.54,2.3465,2.3465,0,0,1-2.0285-2.5683,2.0867,2.0867,0,1,1,4.1355.0287Z" transform="translate(-65.766 -12.3142)"/></svg>